<?xml version="1.0" encoding="UTF-8"?>
<svg width="22px" height="22px" viewBox="0 0 22 22" version="1.1" xmlns="http://www.w3.org/2000/svg" xmlns:xlink="http://www.w3.org/1999/xlink">
    <title>编组 10备份</title>
    <g id="页面-1" stroke="none" stroke-width="1" fill="none" fill-rule="evenodd">
        <g id="图标" transform="translate(-440.000000, -342.000000)" stroke="#FFFFFF">
            <g id="编组-10备份" transform="translate(440.000000, 342.000000)">
                <rect id="矩形" x="4.5" y="4.5" width="1" height="1"></rect>
                <rect id="矩形备份-3" x="16.5" y="4.5" width="1" height="1"></rect>
                <rect id="矩形备份-4" x="4.5" y="16.5" width="1" height="1"></rect>
                <line x1="12.5" y1="12.5" x2="12.5" y2="15.5" id="直线-3" stroke-linecap="round"></line>
                <line x1="12.5" y1="18.5" x2="12.5" y2="21.5" id="直线-3备份" stroke-linecap="round"></line>
                <line x1="15.5" y1="12.5" x2="15.5" y2="21.5" id="直线-3备份-2" stroke-linecap="round"></line>
                <line x1="18.5" y1="12.5" x2="18.5" y2="14.5" id="直线-3备份-3" stroke-linecap="round"></line>
                <line x1="18.5" y1="16.5" x2="18.5" y2="18.5" id="直线-3备份-4" stroke-linecap="round"></line>
                <line x1="21.5" y1="19.5" x2="21.5" y2="21.5" id="直线-3备份-7" stroke-linecap="round"></line>
                <line x1="21.5" y1="12.5" x2="21.5" y2="17.5" id="直线-3备份-6" stroke-linecap="round"></line>
                <line x1="18.5" y1="20.5" x2="18.5" y2="21.5" id="直线-3备份-5" stroke-linecap="round"></line>
                <rect id="矩形" stroke-width="2" x="1" y="1" width="8" height="8" rx="2"></rect>
                <rect id="矩形备份" stroke-width="2" x="13" y="1" width="8" height="8" rx="2"></rect>
                <rect id="矩形备份-2" stroke-width="2" x="1" y="13" width="8" height="8" rx="2"></rect>
            </g>
        </g>
    </g>
</svg>