<svg xmlns="http://www.w3.org/2000/svg" xmlns:xlink="http://www.w3.org/1999/xlink" fill="none" version="1.1" width="24"
	height="24" viewBox="0 0 24 24">
	<clipPath id="master_svg0_1_2205/1_1964">
		<rect x="0" y="0" width="24" height="24" rx="0" />
	</clipPath>
	<g clip-path="url(#master_svg0_1_2205/1_1964)" style="mix-blend-mode:passthrough">
		<g>
			<g style="mix-blend-mode:passthrough">
				<path
					d="M8,4C3.58172,4,0,7.58172,0,12C0,16.418300000000002,3.58172,20,8,20L16,20C20.4183,20,24,16.418300000000002,24,12C24,7.58172,20.4183,4,16,4L8,4ZM2,12C2,8.68629,4.68629,6,8,6L16,6C19.3137,6,22,8.68629,22,12C22,15.3137,19.3137,18,16,18L8,18C4.68629,18,2,15.3137,2,12ZM8,8C5.79086,8,4,9.79086,4,12C4,14.2091,5.79086,16,8,16C10.2091,16,12,14.2091,12,12C12,9.79086,10.2091,8,8,8Z"
					fill-rule="evenodd" fill="#fff" fill-opacity="1" />
			</g>
		</g>
	</g>
</svg>
