<?xml version="1.0" encoding="UTF-8"?>
<svg width="37px" height="37px" viewBox="0 0 37 37" version="1.1" xmlns="http://www.w3.org/2000/svg" xmlns:xlink="http://www.w3.org/1999/xlink">
    <title>编组</title>
    <defs>
        <polygon id="path-1" points="0 0 11 0 11 11 0 11"></polygon>
        <polygon id="path-3" points="0 0 34 0 34 37 0 37"></polygon>
    </defs>
    <g id="12.20" stroke="none" stroke-width="1" fill="none" fill-rule="evenodd">
        <g id="我的积分" transform="translate(-80.000000, -26.000000)">
            <g id="编组" transform="translate(80.000000, 26.000000)">
                <g transform="translate(0.000000, 14.000000)">
                    <mask id="mask-2" fill="white">
                        <use xlink:href="#path-1"></use>
                    </mask>
                    <g id="Clip-2"></g>
                    <path d="M4.40609117,10.6577903 C2.85137957,11.5153232 0.879072669,10.6849016 0.479576451,9.0165362 C0.165804093,7.70704332 -4.93611471e-05,6.34395462 -4.93611471e-05,4.94372498 C-4.93611471e-05,3.9833884 0.0777767141,3.04029025 0.227834601,2.12007217 C0.512977494,0.371783203 2.57364085,-0.543263345 4.18100433,0.343261458 L9.67440639,3.37267828 C11.4418645,4.34743244 11.4418645,6.77789261 9.67440639,7.75249005 L4.40609117,10.6577903 Z" id="Fill-1" fill="#FFC75E" mask="url(#mask-2)"></path>
                </g>
                <g transform="translate(3.000000, 0.000000)">
                    <mask id="mask-4" fill="white">
                        <use xlink:href="#path-3"></use>
                    </mask>
                    <g id="Clip-4"></g>
                    <path d="M8.85023432,35.7002973 C6.11287277,34.6058577 3.69820318,32.8686015 1.79107159,30.6728939 L1.79059843,30.6732115 C1.77813867,30.6587608 1.76630979,30.6435161 1.75385003,30.6289067 C1.62452089,30.4791596 1.49803069,30.3268718 1.37359083,30.1728372 C1.3272216,30.1156697 1.28164097,30.0578671 1.23606033,30.0000644 C1.13464736,29.8717551 1.03512702,29.7420167 0.937183855,29.6106903 C0.901381765,29.562892 0.864948801,29.51557 0.829619867,29.4672952 C0.817633264,29.450939 0.805015787,29.4349003 0.793029185,29.4183853 L0.794606369,29.4177501 L0.786562728,29.4064754 C0.354256435,28.8111396 0.539102467,27.9679193 1.1717112,27.5961718 L14.4836222,19.7728022 C15.0219153,19.4564755 15.0219153,18.6734398 14.4836222,18.3571131 L0.620169755,10.2097944 C0.0107456334,9.85170361 -0.187664187,9.05151769 0.197011132,8.4560231 C0.278236138,8.33025464 0.36088061,8.20543898 0.44478683,8.08157611 L0.442263334,8.07998812 C0.503300377,7.99010814 0.566703197,7.90181614 0.629159707,7.81304775 C0.66874704,7.75683306 0.707230343,7.69982438 0.74744855,7.64408608 C0.868260889,7.47671241 0.99191216,7.31156191 1.11808693,7.14847579 C1.13338562,7.12862597 1.147738,7.10782336 1.16319441,7.08813234 L1.16492931,7.08924393 C2.84762754,4.93037756 4.99638381,3.15739169 7.45884209,1.9244797 L11.3947062,3.34445639 C8.62737814,4.12653927 6.17059773,5.65576937 4.25274128,7.70300035 C3.88226062,8.09840875 3.96900577,8.73709654 4.43537925,9.01118285 L19.9738017,18.1428938 C20.6751757,18.5549761 20.6751757,19.575098 19.9738017,19.9871802 L5.14700493,28.7006158 C4.65981262,28.9870884 4.59262455,29.6638878 5.00663551,30.0499271 C7.27068397,32.1613127 10.1564586,33.6057444 13.3565661,34.0746765 L8.85023432,35.7002973 Z M16.0778404,36.9945056 C14.2345848,37.0394456 12.4517353,36.8090289 10.7650941,36.3442255 L16.7005128,34.202827 C24.8332651,33.6467144 31.2595037,26.8294924 31.2595037,18.5000318 C31.2595037,9.80660482 24.2599585,2.75928371 15.6258193,2.75928371 C15.0001502,2.75928371 14.3831555,2.79691896 13.7767281,2.86885471 L9.12923828,1.19225956 C11.1489808,0.422880554 13.338113,0 15.6258193,0 C26.0789255,0 34.4935207,8.78870608 33.9774659,19.4275741 C33.510777,29.048861 25.6422031,36.7620245 16.0778404,36.9945056 L16.0778404,36.9945056 Z" id="Fill-3" fill="#FF9B3D" mask="url(#mask-4)"></path>
                </g>
                <path d="M22.0527452,12.2695883 C20.7515203,12.2695883 19.6966735,11.2255269 19.6966735,9.93760645 C19.6966735,8.64968604 20.7515203,7.60562465 22.0527452,7.60562465 C23.3538089,7.60562465 24.4086556,8.64968604 24.4086556,9.93760645 C24.4086556,11.2255269 23.3538089,12.2695883 22.0527452,12.2695883 M32.9983524,18.2798835 C32.8830642,10.5898655 26.6015501,4.256074 18.8351562,4.00774635 C14.6023861,3.87257056 10.7559524,5.51542716 8,8.23889209 L24.0210293,17.394139 C25.1855207,18.0594848 25.1855207,19.7229289 24.0210293,20.3882747 L8.51726512,29.2479543 C11.1169738,31.5792977 14.5657841,33 18.3503008,33 C26.5151243,33 33.1197678,26.3888348 32.9983524,18.2798835" id="Fill-5" fill="#FFC75E"></path>
            </g>
        </g>
    </g>
</svg>