<?xml version="1.0" encoding="utf-8"?>
<!-- Generator: Adobe Illustrator 25.3.1, SVG Export Plug-In . SVG Version: 6.00 Build 0)  -->
<svg version="1.1" id="图层_1" xmlns="http://www.w3.org/2000/svg" xmlns:xlink="http://www.w3.org/1999/xlink" x="0px" y="0px"
	 viewBox="0 0 50 50" style="enable-background:new 0 0 50 50;" xml:space="preserve">
<style type="text/css">
	.st0{fill:#F7D5D8;}
	.st1{fill:#C4FFF9;}
	.st2{fill:#9BB8F7;}
	.st3{fill:#D6C5F3;}
	.st4{fill:none;stroke:#0000FF;stroke-width:0.25;stroke-miterlimit:10;}
	.st5{fill:#0000FF;}
</style>
<polygon class="st0" points="23.89,3.34 9.87,25 24.47,19.5 "/>
<polygon class="st1" points="24,3 38,25 23.87,19.5 "/>
<polygon class="st2" points="10.09,24.92 10.35,25.27 24,33 24,19.69 "/>
<polygon class="st3" points="24.11,19.72 24,33 37.82,24.93 "/>
<polygon class="st0" points="9.87,27.63 24,35.63 23.9,47.55 "/>
<polygon class="st3" points="24,36 24,47.68 37.69,27.63 24,35.57 "/>
<polygon class="st4" points="24,33 9.87,25 24,3 37.92,25 "/>
<polyline class="st4" points="24,33 24,19.69 24,19.68 24,3 "/>
<path class="st4" d="M23.5,19.5"/>
<path class="st4" d="M10.5,24.5"/>
<line class="st4" x1="37.9" y1="25" x2="24" y2="19.68"/>
<polyline class="st4" points="24.01,19.68 24,19.69 10,25 "/>
<g>
	<path class="st5" d="M10.08,27.78l13.8,7.92L24,35.77l0.13-0.07l13.29-7.91L24,47.57L10.08,27.78 M38.26,27L24,35.48L9.22,27L24,48
		L38.26,27L38.26,27z"/>
</g>
<g>
	<line class="st4" x1="24" y1="35.5" x2="24" y2="47.55"/>
</g>
</svg>
