<?xml version="1.0" encoding="UTF-8"?>
<svg width="20px" height="20px" viewBox="0 0 20 20" version="1.1" xmlns="http://www.w3.org/2000/svg" xmlns:xlink="http://www.w3.org/1999/xlink">
    <title>形状</title>
    <g id="页面-1" stroke="none" stroke-width="1" fill="none" fill-rule="evenodd">
        <g id="画板" transform="translate(-203.000000, -135.000000)" fill="#FFFFFF" fill-rule="nonzero">
            <g id="礼物备份" transform="translate(213.000000, 145.000000) scale(-1, 1) translate(-213.000000, -145.000000) translate(203.000000, 135.000000)">
                <path d="M14.978823,4.25893256 C15.2453876,3.80081227 15.386385,3.28026709 15.3875391,2.75000216 C15.3875391,1.38323837 14.4485428,0 12.652563,0 C11.8223767,0 11.1168404,0.289009477 10.5548606,0.861647779 C10.252845,1.1681884 10.0232718,1.53585322 9.84356247,1.91975783 C9.66748601,1.53446403 9.4420144,1.16957758 9.14636612,0.863056531 C8.58729652,0.290203003 7.88457275,0 7.05555832,0 C5.99154091,0 5.34997026,0.475375685 4.99879393,0.874346117 C4.56158135,1.37112701 4.32071892,2.03676254 4.32071892,2.74978694 C4.32189448,3.28009883 4.46283879,3.80069649 4.72929832,4.25893256 L1.5384375,4.25893256 C0.688758744,4.25893256 0,4.9489082 0,5.80008817 L0,9.66517659 C0,10.5162392 0.688758744,11.2063518 1.5384375,11.2063518 L1.5384375,17.7401652 C1.53840764,18.3395349 1.77612471,18.9143536 2.1992662,19.3381013 C2.62231856,19.7619724 3.19616462,20 3.7945013,20 L16.2052643,20 C16.8035715,20.0002055 17.3774509,19.7622865 17.8006361,19.3385905 C18.2237733,18.9148319 18.4614891,18.3400091 18.4614648,17.7406347 L18.4614648,11.2077605 C19.3111436,11.2077605 20,10.5177653 20,9.66658534 L20,5.50201963 C20,4.81548924 19.4444444,4.25894336 18.7591249,4.25893256 L14.978823,4.25893256 Z M11.4843255,1.77986088 C11.7969076,1.46273505 12.1774202,1.30812447 12.6513911,1.30812447 C13.7060138,1.30812447 14.0805499,2.08475796 14.0805499,2.75002173 C14.0805499,3.15002916 13.9464075,3.53585124 13.71201,3.80817091 C13.4555224,4.10682643 13.1009476,4.25895212 12.6538521,4.25895212 L10.5697631,4.24218406 C10.6489828,3.48047944 10.8863101,2.38789409 11.4831731,1.77988045 L11.4843255,1.77988045 L11.4843255,1.77986088 Z M5.62696597,2.75000216 C5.62696597,2.3558841 5.75114723,1.99770879 5.97886497,1.738694 C6.23029394,1.45285422 6.59248604,1.30716574 7.05553879,1.30716574 C7.52445099,1.30716574 7.90051046,1.45929144 8.20522136,1.77207361 C8.79667418,2.38067423 9.02238017,3.48830584 9.09281075,4.25891299 L7.05553879,4.25891299 C5.92767291,4.25891299 5.62696597,3.31043128 5.62696597,2.75000216 Z M2.19186376,5.56754616 L7.55097477,5.56754616 L7.55097477,9.8991469 L2.19186376,9.8991469 C1.95686705,9.8991469 1.73148302,9.80569101 1.56531284,9.63923206 C1.39914745,9.47274595 1.30577829,9.24696274 1.30577829,9.01153502 L1.30577829,6.45513849 C1.30577829,6.21972634 1.39911748,5.99395376 1.56531284,5.82751971 C1.73146126,5.661021 1.95685437,5.56749908 2.19186376,5.56754616 L2.19186376,5.56754616 Z M2.84517284,11.2077605 L7.55097477,11.2077605 L7.55097477,18.6916405 L3.86340842,18.6916405 C3.30131144,18.6916405 2.84540722,18.2351851 2.84517284,17.6720755 L2.84517284,11.2077605 L2.84517284,11.2077605 Z M8.85724135,18.6916405 L8.85724135,5.56754618 L11.1430126,5.56754618 L11.1430126,18.6916405 L8.85724135,18.6916405 L8.85724135,18.6916405 Z M16.1362595,18.6916405 L12.4490448,18.6916405 L12.4490448,11.2077605 L17.1542412,11.2077605 L17.1542412,17.6720755 C17.1540068,18.2350677 16.6983761,18.6915035 16.1362595,18.6916405 L16.1362595,18.6916405 Z M17.807687,9.89914689 L12.4490448,9.89914689 L12.4490448,5.56754618 L17.807687,5.56754618 C18.0426862,5.56754618 18.268065,5.66104038 18.4342184,5.82751971 C18.6003683,5.9939842 18.6937529,6.21973703 18.6937529,6.45513849 L18.6937529,9.01153502 C18.693685,9.24695206 18.6003384,9.47271555 18.4342184,9.63923206 C18.2680384,9.80566435 18.0426718,9.89914689 17.807687,9.89914689 L17.807687,9.89914689 Z" id="形状"></path>
            </g>
        </g>
    </g>
</svg>