<?xml version="1.0" encoding="UTF-8"?>
<svg width="15px" height="11px" viewBox="0 0 15 11" version="1.1" xmlns="http://www.w3.org/2000/svg" xmlns:xlink="http://www.w3.org/1999/xlink">
    <title>编组 11</title>
    <g id="页面-1" stroke="none" stroke-width="1" fill="none" fill-rule="evenodd">
        <g id="图标" transform="translate(-529.000000, -349.000000)">
            <g id="编组-11" transform="translate(529.000000, 349.000000)">
                <path d="M14,0 C14.5522847,-1.01453063e-16 15,0.44771525 15,1 L15,8 C15,8.55228475 14.5522847,9 14,9 L13,9 L13,10 C13,10.5522847 12.5522847,11 12,11 L2,11 C1.44771525,11 1,10.5522847 1,10 L1,3 C1,2.44771525 1.44771525,2 2,2 L3,2 L3,1 C3,0.44771525 3.44771525,1.01453063e-16 4,0 L14,0 Z" id="形状结合备份-8" fill-opacity="0.7" fill="#C2AABC"></path>
                <path d="M13,0.5 L13.5,8 L11.5,8.5 L11.5,10 L1,10.5 L0.5,3 L2.5,2.5 L2.5,1 L13,0.5 Z" id="形状结合" stroke="#FFFFFF"></path>
                <text id="OOD" font-family="MicrosoftYaHei-Bold, Microsoft YaHei" font-size="4" font-weight="bold" fill="#FFFFFF">
                    <tspan x="2" y="7">OOD</tspan>
                </text>
            </g>
        </g>
    </g>
</svg>