<?xml version="1.0" standalone="no"?><!DOCTYPE svg PUBLIC "-//W3C//DTD SVG 1.1//EN" "http://www.w3.org/Graphics/SVG/1.1/DTD/svg11.dtd"><svg t="1675649679993" class="icon" viewBox="0 0 1024 1024" version="1.1" xmlns="http://www.w3.org/2000/svg" p-id="2216" xmlns:xlink="http://www.w3.org/1999/xlink" width="20" height="20"><path d="M859.04 352H95.936a32 32 0 1 0 0 64h832a32 32 0 0 0 24.448-52.64l-189.088-224a32 32 0 0 0-48.896 41.28L859.04 352zM164.896 640H928a32 32 0 1 0 0-64H96a32 32 0 0 0-24.448 52.64l189.088 224a32 32 0 0 0 48.896-41.28L164.896 640z" fill="#67c23a" p-id="2217"></path></svg>
