<svg xmlns="http://www.w3.org/2000/svg" xmlns:xlink="http://www.w3.org/1999/xlink" fill="none" version="1.1" width="136.10009765625" height="122.28399658203125" viewBox="0 0 136.10009765625 122.28399658203125"><g style="mix-blend-mode:passthrough"><g style="mix-blend-mode:passthrough"><path d="M70.74899983215332,121.284C103.89799983215332,121.284,130.7719998321533,94.409,130.7719998321533,61.142C130.7719998321533,27.875,103.89799983215332,1,70.74899983215332,1C37.599999832153316,1,10.72599983215332,27.875,10.72599983215332,61.142C10.72599983215332,94.409,37.599999832153316,121.284,70.74899983215332,121.284Z" fill="#F1F3F9" fill-opacity="1"/><path d="M129.7719998321533,61.142Q129.7719998321533,49.0906,125.13399983215332,38.0991Q120.65399983215332,27.4842,112.48399983215332,19.3025Q104.31619983215332,11.1236,93.72259983215332,6.63993Q82.75979983215332,2,70.74899983215332,2Q58.73809983215332,2,47.77539983215332,6.63993Q37.18179983215332,11.1236,29.01419983215332,19.3025Q20.843799832153323,27.4842,16.36434983215332,38.0991Q11.72599983215332,49.0906,11.72599983215332,61.142Q11.72599983215332,73.1934,16.36433983215332,84.1849Q20.84369983215332,94.7997,29.01419983215332,102.982Q37.18179983215332,111.16,47.77539983215332,115.644Q58.73819983215332,120.284,70.74899983215332,120.284Q82.75979983215332,120.284,93.72259983215332,115.644Q104.31609983215333,111.16,112.48399983215332,102.982Q120.65399983215332,94.7998,125.13399983215332,84.1849Q129.7719998321533,73.1934,129.7719998321533,61.142L129.7719998321533,61.142ZM131.7719998321533,61.142Q131.7719998321533,73.5982,126.97599983215332,84.9625Q122.34499983215332,95.9369,113.89899983215332,104.395Q105.45539983215332,112.85,94.50209983215332,117.486Q83.16559983215332,122.284,70.74899983215332,122.284Q58.33239983215332,122.284,46.99589983215332,117.486Q36.04259983215332,112.85,27.59899983215332,104.395Q19.15279983215332,95.9368,14.52168983215332,84.9625Q9.72599983215332,73.5981,9.72600383215332,61.142Q9.72600383215332,48.6859,14.52169983215332,37.3215Q19.152829832153323,26.3471,27.59899983215332,17.8893Q36.04259983215332,9.43404,46.99589983215332,4.7981Q58.33229983215332,0,70.74899983215332,0Q83.16559983215332,0,94.50209983215332,4.798109999999999Q105.45539983215332,9.43402,113.89899983215332,17.8893Q122.34499983215332,26.3471,126.97599983215332,37.3215Q131.7719998321533,48.6859,131.7719998321533,61.142L131.7719998321533,61.142Z" fill="#D6DCE8" fill-opacity="1"/></g><g style="mix-blend-mode:passthrough"><path d="M26.590000045776367,29.295000076293945L111.94800004577637,29.295000076293945C115.38200004577637,29.295000076293945,117.98600004577636,31.900000076293946,117.98600004577636,35.33300007629394L117.98600004577636,89.43700007629394C117.98600004577636,92.87000007629395,115.38200004577637,95.47400007629395,111.94800004577637,95.47400007629395L26.590000045776367,95.47400007629395C23.157000045776368,95.47400007629395,20.552000045776367,92.87000007629395,20.552000045776367,89.43700007629394L20.552000045776367,35.33300007629394C20.552000045776367,31.900000076293946,23.39300004577637,29.295000076293945,26.590000045776367,29.295000076293945Z" fill="#F1F3F9" fill-opacity="1"/><path d="M118.98600004577636,89.43700007629394Q118.98600004577636,92.42610007629395,116.96180004577637,94.45000007629395Q114.93760004577636,96.47400007629395,111.94800004577637,96.47400007629395L26.590000045776367,96.47400007629395Q23.601000045776367,96.47400007629395,21.576600045776367,94.45010007629395Q19.552001045776368,92.42590007629394,19.552000045776367,89.43700007629394L19.552000045776367,35.33300007629394Q19.552000045776367,32.37625007629394,21.67461004577637,30.310060076293944Q23.744690045776366,28.295001076293946,26.590000045776367,28.295000076293945L111.94800004577637,28.295000076293945Q114.93760004577636,28.295000076293945,116.96190004577636,30.319560076293946Q118.98600004577636,32.343910076293945,118.98600004577636,35.33300007629394L118.98600004577636,89.43700007629394ZM116.98600004577636,89.43700007629394L116.98600004577636,35.33300007629394Q116.98600004577636,33.172260076293945,115.54760004577636,31.733690076293946Q114.10910004577637,30.295000076293945,111.94800004577637,30.295000076293945L26.590000045776367,30.295000076293945Q24.557380045776366,30.295000076293945,23.069640045776367,31.743190076293946Q21.552000045776367,33.220500076293945,21.552000045776367,35.33300007629394L21.552000045776367,89.43700007629394Q21.552000045776367,91.59740007629395,22.990650045776366,93.03570007629395Q24.429290045776366,94.47400007629395,26.590000045776367,94.47400007629395L111.94800004577637,94.47400007629395Q114.10930004577637,94.47400007629395,115.54770004577637,93.03570007629395Q116.98600004577636,91.59760007629394,116.98600004577636,89.43700007629394Z" fill="#D6DCE8" fill-opacity="1"/></g><g style="mix-blend-mode:passthrough"><path d="M101.62299942016602,35.32899968719482L102.34799942016602,93.73999968719482C102.34799942016602,95.73499968719483,100.71599942016601,97.27699968719483,98.71999942016602,97.27699968719483L41.760999420166016,97.27699968719483C39.76499942016601,97.27699968719483,38.132999420166016,95.64399968719482,38.132999420166016,93.73999968719482L38.132999420166016,18.639999687194823C38.132999420166016,16.644999687194826,39.76499942016601,15.102999687194824,41.760999420166016,15.102999687194824L83.02899942016602,15.102999687194824L101.62299942016602,35.32899968719482Z" fill="#FFFFFF" fill-opacity="1"/><path d="M103.34799942016602,93.73999968719482Q103.34799942016602,95.65229968719483,101.97709942016601,96.97599968719483Q100.62969942016602,98.27699968719483,98.71999942016602,98.27699968719483L41.760999420166016,98.27699968719483Q39.86218942016602,98.27699968719483,38.49752042016602,96.93569968719483Q37.132999420166016,95.59449968719483,37.132999420166016,93.73999968719482L37.132999420166016,18.639999687194823Q37.132999420166016,16.727709687194825,38.50387842016602,15.403998687194825Q39.85123942016602,14.102999687194824,41.760999420166016,14.102999687194824L83.46799942016602,14.102999687194824L102.61819942016602,34.933899687194824L103.34789942016602,93.72759968719483L103.34799942016602,93.73999968719482ZM101.34809942016602,93.75239968719482L100.62309942016601,35.34139968719482L101.62299942016602,35.32899968719482L100.88679942016601,36.00579968719482L82.292799420166,15.779781687194824L83.02899942016602,15.102999687194824L83.02899942016602,16.102999687194824L41.760999420166016,16.102999687194824Q40.659229420166014,16.102999687194824,39.893119420166016,16.842749687194825Q39.132999420166016,17.576719687194824,39.132999420166016,18.639999687194823L39.132999420166016,93.73999968719482Q39.132999420166016,94.75599968719483,39.89947942016602,95.50929968719483Q40.68052942016602,96.27699968719483,41.760999420166016,96.27699968719483L98.71999942016602,96.27699968719483Q99.82179942016602,96.27699968719483,100.58789942016602,95.53719968719483Q101.34799942016602,94.80329968719482,101.34799942016602,93.73999968719482L101.34809942016602,93.75239968719482Z" fill="#D6DCE8" fill-opacity="1"/></g><g style="mix-blend-mode:passthrough"><path d="M75.04800079345704,27.34700032043457L47.74700079345703,27.34700032043457C47.11200079345703,27.34700032043457,46.56800079345703,26.80300032043457,46.56800079345703,26.16800032043457C46.56800079345703,25.53300032043457,47.11200079345703,24.98900032043457,47.74700079345703,24.98900032043457L75.04800079345704,24.98900032043457C75.68200079345704,24.98900032043457,76.22700079345702,25.53300032043457,76.22700079345702,26.16800032043457C76.22700079345702,26.80300032043457,75.68200079345704,27.34700032043457,75.04800079345704,27.34700032043457Z" fill="#D6DCE8" fill-opacity="1"/></g><g style="mix-blend-mode:passthrough"><path d="M58.268000793457034,33.87800045776367L47.74700079345703,33.87800045776367C47.11200079345703,33.87800045776367,46.56800079345703,33.33400045776367,46.56800079345703,32.699000457763674C46.56800079345703,32.06400045776367,47.11200079345703,31.520000457763672,47.74700079345703,31.520000457763672L58.17700079345703,31.520000457763672C58.81200079345703,31.520000457763672,59.35600079345703,32.06400045776367,59.35600079345703,32.699000457763674C59.35600079345703,33.33400045776367,58.81200079345703,33.87800045776367,58.268000793457034,33.87800045776367Z" fill="#D6DCE8" fill-opacity="1"/></g><g style="mix-blend-mode:passthrough"><path d="M83.02899932861328,15.102999687194824L83.02899932861328,31.246999687194823C83.02899932861328,33.51499968719482,85.02499932861328,35.32899968719482,87.29199932861329,35.32899968719482L101.62299932861328,35.32899968719482" fill="#D6DCE8" fill-opacity="1"/></g><g style="mix-blend-mode:passthrough"><path d="M94.02300057983399,47.66999816894531L84.125000579834,47.66999816894531L81.67200057983399,47.66999816894531L48.08800057983398,47.66999816894531C47.665000579833986,47.66999816894531,47.242000579833984,48.09399816894531,47.242000579833984,48.686998168945316C47.242000579833984,49.195998168945316,47.580000579833985,49.70499816894531,48.08800057983398,49.70499816894531L81.67200057983399,49.70499816894531L84.125000579834,49.70499816894531L93.93800057983398,49.70499816894531C94.53100057983399,49.70499816894531,94.869000579834,49.28099816894531,94.869000579834,48.686998168945316C94.869000579834,48.17899816894531,94.53100057983399,47.66999816894531,94.02300057983399,47.66999816894531Z" fill="#D6DCE8" fill-opacity="1"/></g><g style="mix-blend-mode:passthrough"><path d="M121.14400003051757,63.98300115966797L121.14400003051757,90.62100115966797L119.64400003051757,90.62100115966797L121.14400003051757,90.62100115966797Q121.14400003051757,93.83210115966797,118.90610003051758,96.09950115966797Q116.63960003051758,98.39600115966797,113.36900003051758,98.39600115966797L113.36900003051758,96.89600115966797L113.36900003051758,98.39600115966797L25.643000030517577,98.39600115966797L25.643000030517577,96.89600115966797L25.643000030517577,98.39600115966797Q22.446930030517578,98.39600115966797,20.157465030517578,96.10650115966797Q17.868000030517578,93.81710115966797,17.868000030517578,90.62100115966797L19.368000030517578,90.62100115966797L17.868000030517578,90.62100115966797L17.868000030517578,61.73400115966797Q17.868000030517578,61.660310859667966,17.87522003051758,61.58697515966797Q17.882450030517578,61.51364015966797,17.896820030517578,61.44136615966797Q17.911200030517577,61.36909115966797,17.932590030517577,61.29857415966797Q17.953980030517577,61.22805715966797,17.98218003051758,61.15997615966797Q18.010380030517577,61.09189515966797,18.045120030517577,61.026906159667966Q18.07986003051758,60.96191715966797,18.12080003051758,60.90064615966797Q18.161740030517578,60.83937415966797,18.208480030517578,60.782411159667966Q18.255230030517577,60.72545115966797,18.30734003051758,60.67334115966797Q18.35945003051758,60.62123115966797,18.41641003051758,60.57448115966797Q18.47337303051758,60.52774115966797,18.534645030517577,60.48680115966797Q18.59591603051758,60.44586115966797,18.66090503051758,60.41112115966797Q18.72589403051758,60.37638115966797,18.79397503051758,60.348181159667966Q18.86205603051758,60.31998115966797,18.932573030517577,60.29859115966797Q19.00309003051758,60.27720115966797,19.075365030517577,60.26282115966797Q19.147639030517578,60.248451159667965,19.220974030517578,60.241221159667965Q19.29430973051758,60.23400115966797,19.368000030517578,60.23400115966797Q19.441690330517577,60.23400115966797,19.51502603051758,60.241221159667965Q19.58836103051758,60.248451159667965,19.66063503051758,60.26282115966797Q19.732910030517576,60.27720115966797,19.80342703051758,60.29859115966797Q19.873944030517578,60.31998115966797,19.942025030517577,60.348181159667966Q20.010106030517576,60.37638115966797,20.075095030517577,60.41112115966797Q20.140084030517578,60.44586115966797,20.20135503051758,60.48680115966797Q20.262627030517578,60.52774115966797,20.319590030517578,60.57448115966797Q20.376550030517578,60.62123115966797,20.428660030517577,60.67334115966797Q20.48077003051758,60.72545115966797,20.52752003051758,60.782411159667966Q20.57426003051758,60.83937415966797,20.615200030517578,60.90064615966797Q20.656140030517577,60.96191715966797,20.69088003051758,61.026906159667966Q20.72562003051758,61.09189515966797,20.753820030517577,61.15997615966797Q20.78202003051758,61.22805715966797,20.80341003051758,61.29857415966797Q20.82480003051758,61.36909115966797,20.83918003051758,61.44136615966797Q20.853550030517578,61.51364015966797,20.860780030517578,61.58697515966797Q20.868000030517578,61.660310859667966,20.868000030517578,61.73400115966797L20.868000030517578,90.62100115966797L20.868000030517578,90.62100115966797Q20.868000030517578,92.57440115966797,22.278790030517577,93.98520115966797Q23.68957003051758,95.39600115966797,25.643000030517577,95.39600115966797L25.643000030517577,95.39600115966797L113.36900003051758,95.39600115966797L113.36900003051758,95.39600115966797Q115.38540003051757,95.39600115966797,116.77090003051758,93.99220115966797Q118.14400003051757,92.60100115966797,118.14400003051757,90.62100115966797L118.14400003051757,90.62100115966797L118.14400003051757,63.98300115966797Q118.14400003051757,63.90931115966797,118.15120003051757,63.83597115966797Q118.15850003051757,63.76264115966797,118.17280003051758,63.69036115966797Q118.18720003051757,63.61809115966797,118.20860003051757,63.54757115966797Q118.23000003051757,63.47706115966797,118.25820003051757,63.40897115966797Q118.28640003051758,63.34089115966797,118.32110003051758,63.27590115966797Q118.35590003051757,63.21092115966797,118.39680003051758,63.14964115966797Q118.43770003051758,63.08837115966797,118.48450003051758,63.03141115966797Q118.53120003051758,62.97445115966797,118.58330003051758,62.922341159667965Q118.63540003051757,62.870231159667966,118.69240003051758,62.82348115966797Q118.74940003051758,62.77674115966797,118.81060003051758,62.73580115966797Q118.87190003051758,62.69485615966797,118.93690003051758,62.66011915966797Q119.00190003051758,62.62538215966797,119.07000003051758,62.597182159667966Q119.13810003051758,62.56898215966797,119.20860003051757,62.54759115966797Q119.27910003051758,62.52619915966797,119.35140003051758,62.51182315966797Q119.42400003051758,62.49744715966797,119.49700003051758,62.49022415966797Q119.57000003051758,62.48300115966797,119.64400003051757,62.48300115966797Q119.71800003051757,62.48300115966797,119.79100003051758,62.49022415966797Q119.86400003051757,62.49744715966797,119.93700003051758,62.51182315966797Q120.00900003051758,62.52619915966797,120.07900003051758,62.54759115966797Q120.15000003051757,62.56898215966797,120.21800003051757,62.597182159667966Q120.28600003051758,62.62538215966797,120.35100003051758,62.66011915966797Q120.41600003051758,62.69485615966797,120.47700003051757,62.73580115966797Q120.53900003051758,62.77674115966797,120.59600003051757,62.82348115966797Q120.65300003051757,62.870231159667966,120.70500003051758,62.922341159667965Q120.75700003051757,62.97445115966797,120.80400003051759,63.03141115966797Q120.85000003051758,63.08837115966797,120.89100003051757,63.14964115966797Q120.93200003051757,63.21092115966797,120.96700003051758,63.27590115966797Q121.00200003051758,63.34089115966797,121.03000003051758,63.40897115966797Q121.05800003051758,63.47706115966797,121.07900003051758,63.54757115966797Q121.10100003051758,63.61809115966797,121.11500003051758,63.69036115966797Q121.13000003051758,63.76264115966797,121.13700003051758,63.83597115966797Q121.14400003051757,63.90931115966797,121.14400003051757,63.98300115966797Z" fill="#1676EE" fill-opacity="1"/></g><g style="mix-blend-mode:passthrough"><path d="M112.18500016784668,49.066001892089844L84.48200016784668,49.066001892089844C81.75900016784668,49.066001892089844,79.15500016784668,50.01300189208985,77.14200016784667,51.67100189208984L69.92000016784668,57.590001892089845C67.90800016784668,59.24700189208984,65.30300016784668,60.19500189208984,62.58000016784668,60.19500189208984L31.32600016784668,60.19500189208984C28.12900016784668,60.19500189208984,25.52400016784668,62.79900189208985,25.52400016784668,65.99600189208985C25.52400016784668,66.23200189208984,25.52400016784668,66.58800189208984,25.64300016784668,66.82400189208984L31.44400016784668,97.36900189208984C31.91700016784668,100.21000189208985,34.285000167846675,102.34100189208985,37.24500016784668,102.34100189208985L104.13500016784668,102.34100189208985C106.97600016784668,102.34100189208985,109.46200016784668,100.32800189208984,109.93600016784669,97.48700189208984L117.98600016784668,55.696001892089846C118.57800016784668,52.499001892089844,116.44700016784668,49.65800189208984,113.25100016784668,49.066001892089844C112.77700016784668,49.066001892089844,112.42200016784668,49.066001892089844,112.18500016784668,49.066001892089844Z" fill="#FFFFFF" fill-opacity="1"/></g><g style="mix-blend-mode:passthrough"><path d="M124.61600036621094,40.89699932861328L88.62600036621093,40.89699932861328C85.07400036621094,40.89699932861328,81.75900036621094,42.08099932861328,79.03600036621094,44.33099932861328L69.56500036621094,52.02599932861328C66.96100036621094,54.15699932861328,63.527000366210935,55.45899932861328,59.97600036621094,55.45899932861328L19.250000366210937,55.45899932861328C15.106000366210937,55.45899932861328,11.791000366210938,58.89199932861328,11.791000366210938,62.91799932861328C11.791000366210938,63.27299932861328,11.791000366210938,63.627999328613285,11.910000366210937,63.98299932861328L19.368000366210936,103.87999932861328C19.960000366210938,107.66899932861328,23.157000366210937,110.39199932861328,26.82700036621094,110.39199932861328L113.96100036621094,110.39199932861328C117.75000036621094,110.39199932861328,120.82800036621094,107.78699932861328,121.42000036621094,103.99899932861328L131.95600036621096,49.42099932861328C132.66700036621094,45.277999328613284,129.94400036621096,41.60799932861328,125.80000036621094,40.77899932861328C125.44500036621093,40.89699932861328,124.97100036621094,40.89699932861328,124.61600036621094,40.89699932861328Z" fill="#FFFFFF" fill-opacity="1"/><path d="M130.97000036621094,49.25185932861328Q131.42900036621094,46.57963932861328,129.88800036621092,44.44217932861328Q128.34900036621093,42.30872932861328,125.60400036621094,41.75956932861328L125.80000036621094,40.77899932861328L126.11500036621094,41.72795032861328Q125.60700036621094,41.89699932861328,124.61600036621094,41.89699932861328L88.62600036621093,41.89699932861328Q83.55160036621093,41.89699932861328,79.67300036621094,45.10187932861328L70.19560036621094,52.80209932861328Q65.72700036621094,56.45899932861328,59.97600036621094,56.45899932861328L19.250000366210937,56.45899932861328Q16.579610366210936,56.45899932861328,14.677450366210937,58.38199932861328Q12.791000366210938,60.28909932861328,12.791000366210938,62.91799932861328Q12.791000366210938,63.464899328613285,12.858150366210937,63.665199328613284L12.880220366210938,63.73099932861328L20.353710366210937,103.71089932861328L20.35601036621094,103.72559932861327Q20.741360366210937,106.19199932861328,22.59820036621094,107.80119932861328Q24.43380036621094,109.39199932861328,26.82700036621094,109.39199932861328L113.96100036621094,109.39199932861328Q116.44100036621094,109.39199932861328,118.24000036621094,107.85549932861328Q120.04600036621093,106.31309932861328,120.43200036621094,103.84459932861328L120.43500036621094,103.82699932861328L130.97400036621093,49.23144932861328L130.97000036621094,49.25185932861328ZM132.93800036621093,49.61054932861328L122.40200036621094,104.18849932861329L121.42000036621094,103.99899932861328L122.40800036621094,104.15339932861329Q121.90800036621094,107.35329932861328,119.53900036621094,109.37649932861328Q117.17800036621094,111.39199932861328,113.96100036621094,111.39199932861328L26.82700036621094,111.39199932861328Q23.687700366210937,111.39199932861328,21.288330366210936,109.31259932861329Q18.87833036621094,107.22399932861327,18.379990366210937,104.03439932861329L19.368000366210936,103.87999932861328L18.385030366210938,104.06379932861327L10.927027366210938,64.16669932861328L11.910000366210937,63.98299932861328L10.961852366210938,64.30079932861328Q10.791000366210938,63.791099328613285,10.791000366210938,62.91799932861328Q10.791000366210938,59.466999328613284,13.255550366210937,56.97549932861328Q15.744790366210937,54.45899932861328,19.250000366210937,54.45899932861328L59.97600036621094,54.45899932861328Q65.01300036621095,54.45899932861328,68.93440036621094,51.24989932861328L78.39900036621094,43.56011932861328Q82.83220036621094,39.89699932861328,88.62600036621093,39.89699932861328L124.61600036621094,39.89699932861328Q125.28300036621094,39.89699932861328,125.48500036621094,39.83004832861328L125.73600036621093,39.74641932861328L125.99600036621094,39.79842632861328Q129.51200036621094,40.50169032861328,131.51000036621093,43.27231932861328Q133.54200036621094,46.09059932861328,132.94200036621095,49.59013932861328L132.93800036621093,49.61054932861328Z" fill="#D6DCE8" fill-opacity="1"/></g><g style="mix-blend-mode:passthrough"><path d="M132.0000015258789,36.89000053405762C134.2640015258789,36.89000053405762,136.1000015258789,35.054000534057614,136.1000015258789,32.79000053405762C136.1000015258789,30.525000534057618,134.2640015258789,28.690000534057617,132.0000015258789,28.690000534057617C129.7350015258789,28.690000534057617,127.9000015258789,30.525000534057618,127.9000015258789,32.79000053405762C127.9000015258789,35.054000534057614,129.7350015258789,36.89000053405762,132.0000015258789,36.89000053405762Z" fill="#F1F3F9" fill-opacity="1"/></g><g style="mix-blend-mode:passthrough"><path d="M127.89999847412109,23.589999771118165C129.4459984741211,23.589999771118165,130.6999984741211,22.335999771118164,130.6999984741211,20.789999771118165C130.6999984741211,19.242999771118164,129.4459984741211,17.989999771118164,127.89999847412109,17.989999771118164C126.3529984741211,17.989999771118164,125.0999984741211,19.242999771118164,125.0999984741211,20.789999771118165C125.0999984741211,22.335999771118164,126.3529984741211,23.589999771118165,127.89999847412109,23.589999771118165Z" fill="#F1F3F9" fill-opacity="1"/></g><g style="mix-blend-mode:passthrough"><path d="M11.499999809265137,32.79000053405762C13.045999809265137,32.79000053405762,14.299999809265136,31.536000534057617,14.299999809265136,29.990000534057618C14.299999809265136,28.443000534057617,13.045999809265137,27.190000534057617,11.499999809265137,27.190000534057617C9.952999809265137,27.190000534057617,8.699999809265137,28.443000534057617,8.699999809265137,29.990000534057618C8.699999809265137,31.536000534057617,9.952999809265137,32.79000053405762,11.499999809265137,32.79000053405762Z" fill="#F1F3F9" fill-opacity="1"/></g><g style="mix-blend-mode:passthrough"><path d="M5.2,94.38999786376954C8.072,94.38999786376954,10.4,92.06199786376953,10.4,89.18999786376953C10.4,86.31799786376953,8.072,83.98999786376953,5.2,83.98999786376953C2.328,83.98999786376953,0,86.31799786376953,0,89.18999786376953C0,92.06199786376953,2.328,94.38999786376954,5.2,94.38999786376954Z" fill="#F1F3F9" fill-opacity="1"/></g><g style="mix-blend-mode:passthrough"><path d="M106.02300057983399,100.84099948120118L123.41600057983399,118.19999948120117C125.107000579834,119.88799948120118,127.81300057983398,119.88799948120118,129.50400057983398,118.19999948120117C131.195000579834,116.51199948120117,131.195000579834,113.81199948120117,129.50400057983398,112.12399948120117L112.01400057983398,94.66899948120117C124.62400057983399,76.29699948120117,111.33800057983399,51.99399948120117,89.69300057983398,51.99399948120117C74.71500057983398,51.99399948120117,62.492000579833984,64.14599948120117,62.492000579833984,79.14199948120117C62.492000579833984,101.17799948120117,87.66300057983398,114.34199948120117,106.02300057983399,100.84099948120118ZM71.09210057983398,79.18999948120117C71.09210057983398,68.96799948120118,79.45010057983399,60.62601948120117,89.69310057983398,60.62601948120117C106.36110057983399,60.62601948120117,114.91310057983398,81.02299948120117,102.11010057983398,92.98099948120117C90.80410057983399,103.54099948120117,71.09210057983398,95.63299948120118,71.09210057983398,79.18999948120117Z" fill-rule="evenodd" fill="#D6DCE8" fill-opacity="1"/><path d="M106.72940057983399,100.13319948120117L124.122400579834,117.49219948120117Q125.09790057983398,118.46599948120117,126.46000057983399,118.46599948120117Q127.82210057983399,118.46599948120117,128.79750057983398,117.49229948120117Q129.772300579834,116.51929948120117,129.772300579834,115.16199948120118Q129.77220057983396,113.80469948120117,128.79750057983398,112.83169948120117L110.71870057983398,94.78909948120116L111.18950057983398,94.10309948120117Q115.59980057983398,87.67759948120117,115.89080057983398,80.21139948120117Q116.16370057983399,73.20839948120117,112.81610057983399,66.91139948120117Q109.48350057983399,60.64270948120117,103.55430057983398,56.92567948120117Q97.282500579834,52.99399948120117,89.69300057983398,52.99399948120117Q78.86460057983399,52.99399948120117,71.18174057983398,60.652719481201174Q63.492000579833984,68.31829948120117,63.492000579833984,79.14199948120117Q63.492000579833984,86.86199948120117,67.55332057983398,93.18719948120116Q71.38818057983399,99.15969948120117,77.82500057983398,102.42609948120116Q84.29300057983399,105.70829948120118,91.41100057983398,105.24719948120116Q99.01280057983399,104.75469948120117,105.43060057983399,100.03539948120118L106.12200057983398,99.52699948120117L106.72940057983399,100.13319948120117ZM105.31660057983399,101.54879948120117L106.02300057983399,100.84099948120118L106.61540057983399,101.64659948120118Q99.72610057983398,106.71269948120117,91.54030057983398,107.24299948120117Q83.87610057983399,107.73949948120116,76.92000057983398,104.20959948120117Q69.99873057983399,100.69739948120117,65.87037057983399,94.26779948120117Q61.492000579833984,87.44879948120118,61.492000579833984,79.14199948120117Q61.492000579833984,67.48799948120117,69.76976057983399,59.23627948120117Q78.03810057983398,50.99399948120117,89.69300057983398,50.99399948120117Q97.85760057983398,50.99399948120117,104.61660057983399,55.23112948120117Q110.99870057983398,59.23201948120117,114.58210057983399,65.97259948120117Q118.18330057983398,72.74649948120117,117.88930057983399,80.28929948120117Q117.57570057983398,88.33299948120117,112.83850057983398,95.23489948120118L112.01400057983398,94.66899948120117L112.72040057983398,93.96119948120116L130.210500579834,111.41629948120118Q131.772300579834,112.97529948120118,131.772300579834,115.16199948120118Q131.772300579834,117.34869948120117,130.210500579834,118.90769948120118Q128.64940057983398,120.46599948120117,126.46000057983399,120.46599948120117Q124.27060057983398,120.46599948120117,122.70960057983399,118.90779948120117L105.31660057983399,101.54879948120117ZM70.09210057983398,79.18999948120117Q70.09210057983398,71.10859948120117,75.84510057983398,65.36699948120118Q81.59730057983398,59.62601948120117,89.69310057983398,59.62601948120117Q96.05070057983399,59.62601948120117,101.04580057983398,63.18549948120117Q105.72370057983397,66.51899948120118,107.88250057983399,71.94989948120117Q110.05750057983398,77.42149948120117,108.894700579834,83.08199948120117Q107.64140057983398,89.18309948120117,102.79270057983399,93.71179948120117Q98.45980057983398,97.75879948120118,92.63400057983398,98.58359948120116Q87.17180057983398,99.35689948120117,81.96810057983399,97.13109948120118Q76.71410057983398,94.88379948120118,73.52990057983399,90.34069948120117Q70.09210057983398,85.43589948120118,70.09210057983398,79.18999948120117L70.09210057983398,79.18999948120117ZM72.09210057983398,79.18999948120117Q72.09211057983399,84.80479948120117,75.16760057983399,89.19279948120118Q78.02470057983399,93.26909948120118,82.75460057983398,95.29219948120118Q87.44460057983399,97.29829948120117,92.35360057983398,96.60329948120116Q97.55530057983398,95.86699948120116,101.42750057983397,92.25019948120118Q105.81050057983398,88.15649948120117,106.93560057983399,82.67959948120117Q107.97810057983398,77.60469948120118,106.02390057983399,72.68869948120117Q104.08290057983399,67.80559948120117,99.88520057983399,64.81429948120118Q95.41110057983398,61.62601948120117,89.69310057983398,61.62601948120117Q82.42460057983399,61.62601948120117,77.25790057983399,66.78259948120117Q72.09209057983398,71.93819948120117,72.09210057983398,79.18999948120117L72.09210057983398,79.18999948120117Z" fill="#AAB2C5" fill-opacity="1"/></g><g style="mix-blend-mode:passthrough"><path d="M87.71199737548828,82.03499914550781C87.71199737548828,82.46899914550781,87.75999737548828,82.85499914550782,87.80799737548828,83.24099914550781L87.80799737548828,83.33699914550782L91.09399737548829,83.33699914550782L91.09399737548829,83.14399914550782C91.09399737548829,81.93899914550781,91.62499737548828,80.97399914550782,92.68799737548828,80.25099914550782L93.89599737548828,79.38299914550781C95.63499737548828,78.1289991455078,96.84299737548828,76.48999914550781,96.84299737548828,74.12699914550781C96.84299737548828,71.08899914550781,94.42799737548827,68.19599914550781,89.78899737548828,68.19599914550781C85.39299737548828,68.19599914550781,82.97699737548828,71.28199914550781,82.97699737548828,74.51299914550782C82.97699737548828,74.94699914550782,83.02499737548828,75.42899914550782,83.12199737548828,75.86299914550781L86.88999737548828,76.00799914550781C86.84199737548828,75.71799914550782,86.79399737548829,75.38099914550781,86.79399737548829,75.0429991455078C86.79399737548829,73.35599914550781,87.71199737548828,71.6679991455078,89.83799737548829,71.6679991455078C91.86699737548828,71.6679991455078,92.83299737548828,72.96999914550781,92.83299737548828,74.31999914550781C92.83299737548828,75.23599914550782,92.44699737548828,76.00799914550781,91.52899737548827,76.68299914550781L90.07899737548829,77.74399914550781C88.38799737548828,78.99699914550781,87.71199737548828,80.44399914550782,87.71199737548828,82.03499914550781ZM91.86702737548828,87.53199914550781C91.86702737548828,86.2299991455078,90.80402737548827,85.16899914550781,89.49902737548828,85.16899914550781C88.19502737548828,85.16899914550781,87.13202737548828,86.2299991455078,87.13202737548828,87.53199914550781C87.13202737548828,88.83399914550782,88.19502737548828,89.89499914550781,89.49902737548828,89.89499914550781C90.80402737548827,89.89499914550781,91.86702737548828,88.83399914550782,91.86702737548828,87.53199914550781Z" fill-rule="evenodd" fill="#989FB0" fill-opacity="1"/></g></g></svg>