<svg xmlns="http://www.w3.org/2000/svg" xmlns:xlink="http://www.w3.org/1999/xlink" fill="none" version="1.1" width="167.6845245361328" height="151.18743896484375" viewBox="0 0 167.6845245361328 151.18743896484375"><defs><linearGradient x1="0.5000077486038208" y1="0.07352100312709808" x2="0.5000077486038208" y2="0.4515310227870941" id="master_svg0__055062"><stop offset="0%" stop-color="#B0BACC" stop-opacity="1"/><stop offset="100%" stop-color="#969EAE" stop-opacity="1"/></linearGradient><filter id="master_svg1_0_401719" filterUnits="objectBoundingBox" color-interpolation-filters="sRGB" x="-44" y="-33" width="167.68450927734375" height="134.05899810791016"><feFlood flood-opacity="0" result="BackgroundImageFix"/><feColorMatrix in="SourceAlpha" type="matrix" values="0 0 0 0 0 0 0 0 0 0 0 0 0 0 0 0 0 0 127 0"/><feOffset dy="11" dx="0"/><feGaussianBlur stdDeviation="11"/><feColorMatrix type="matrix" values="0 0 0 0 0.3960784375667572 0 0 0 0 0.47843137383461 0 0 0 0 0.5764706134796143 0 0 0 0.27000001072883606 0"/><feBlend mode="normal" in2="BackgroundImageFix" result="effect1_dropShadow"/><feBlend mode="normal" in="SourceGraphic" in2="effect1_dropShadow" result="shape"/></filter><linearGradient x1="0.4996841251850128" y1="-0.02316455729305744" x2="0.4996841251850128" y2="1.0107594728469849" id="master_svg2__054548"><stop offset="0%" stop-color="#FDFEFF" stop-opacity="1"/><stop offset="99.6399998664856%" stop-color="#ECF0F5" stop-opacity="1"/></linearGradient></defs><g style="mix-blend-mode:passthrough"><g style="mix-blend-mode:passthrough"><path d="M83.27799780273438,101.95944466400147C109.08199780273438,101.95944466400147,130.05299780273438,80.98844466400146,130.05299780273438,55.185444664001466C130.05299780273438,29.382444664001465,109.08199780273438,8.411444664001465,83.27799780273438,8.411444664001465C57.378997802734375,8.411444664001465,36.503997802734375,29.286444664001465,36.503997802734375,55.185444664001466C36.503997802734375,80.98844466400146,57.378997802734375,101.95944466400147,83.27799780273438,101.95944466400147Z" fill="#EAEEF9" fill-opacity="1"/></g><g style="mix-blend-mode:passthrough"><path d="M53.84699749755859,42.399444580078125L110.38799749755859,42.399444580078125C112.50499749755859,42.399444580078125,114.4109974975586,44.19944458007812,114.4109974975586,46.423444580078126L114.4109974975586,82.10544458007813C114.4109974975586,84.22244458007813,112.6109974975586,86.12844458007812,110.38799749755859,86.12844458007812L53.84699749755859,86.12844458007812C51.72999749755859,86.12844458007812,49.823997497558594,84.32844458007813,49.823997497558594,82.10544458007813L49.823997497558594,46.423444580078126C49.823997497558594,44.19944458007812,51.72999749755859,42.399444580078125,53.84699749755859,42.399444580078125Z" fill="url(#master_svg0__055062)" fill-opacity="1"/></g><g style="mix-blend-mode:passthrough"><path d="M137.6869931665039,43.492443361816406C139.1369931665039,42.139443361816404,139.2339931665039,39.916443361816405,137.8809931665039,38.46644336181641C136.5279931665039,37.01744536181641,134.30499316650392,36.920445361816405,132.8549931665039,38.27344536181641C131.4059951665039,39.626443361816406,131.3089951665039,41.849443361816405,132.6619951665039,43.2984433618164C133.91799316650392,44.651443361816405,136.2379931665039,44.84544336181641,137.6869931665039,43.492443361816406Z" fill="#EAEEF9" fill-opacity="1"/></g><g style="mix-blend-mode:passthrough"><path d="M137.8800014355469,27.546446091918945C138.46000143554687,26.966446091918947,138.55700143554688,26.000446091918946,137.97700143554687,25.420444091918945C137.39700143554688,24.840443791918947,136.43100143554688,24.743444091918946,135.85099943554687,25.323444091918944C135.27099913554687,25.903444091918946,135.17399943554688,26.869446091918945,135.7539994355469,27.449446091918944C136.33399943554687,28.126446091918947,137.30100143554688,28.126446091918947,137.8800014355469,27.546446091918945Z" fill="#EAEEF9" fill-opacity="1"/></g><g style="mix-blend-mode:passthrough"><path d="M99.90099678955079,5.609447461700439C100.28699678955078,5.2224474617004395,100.38399678955078,4.54644446170044,99.99699678955078,4.159444461700439C99.61099678955078,3.7724446617004395,98.93399378955078,3.6764444617004393,98.54799378955079,4.06244446170044C98.16099398955078,4.449444461700439,98.06499378955078,5.125447461700439,98.45099378955078,5.5124474617004395C98.83799378955078,5.89844746170044,99.51399678955079,5.99544746170044,99.90099678955079,5.609447461700439Z" fill="#EAEEF9" fill-opacity="1"/></g><g style="mix-blend-mode:passthrough"><path d="M134.95203294677734,23.5524L120.87003294677734,48.6464C120.34003294677734,49.4934,119.28203294677735,49.8114,118.54003294677734,49.2814L94.39999994677734,35.1994C93.55199964677735,34.6704,93.23499994677735,33.6114,93.76399994677735,32.8704L112.29303294677734,0.894445C112.82303294677735,0.0474446,113.88203294677734,-0.270555,114.62303294677734,0.258445L132.09303294677733,10.4234L134.95203294677734,23.5524Z" fill="#F2F6FA" fill-opacity="1"/></g><g style="mix-blend-mode:passthrough"><path d="M132.09299385986327,10.423444747924805L128.0699978598633,17.199444747924804C127.53999785986328,18.258444747924806,127.85799735986328,19.317444747924803,128.81099785986328,19.952444747924805L134.84599385986328,23.446444747924804" fill="#D5DAE6" fill-opacity="1"/></g><g style="mix-blend-mode:passthrough"><path d="M116.63499578857422,16.882444381713867C116.31699578857422,16.882444381713867,115.89299578857421,16.882444381713867,115.46999578857422,16.98844438171387L115.36399578857421,18.470444381713868C115.36399578857421,18.682444381713868,115.57599578857422,18.999444381713868,115.78799578857422,19.105444381713866C115.89299578857421,19.211444381713868,116.10499578857421,19.211444381713868,116.21099578857422,19.211444381713868L116.95199578857422,19.211444381713868C117.26999578857422,19.211444381713868,117.58799578857422,19.211444381713868,117.90499578857421,19.317444381713866C118.32899578857422,19.423444381713868,118.75199578857422,19.635444381713867,119.06999578857422,19.846444381713866C119.38799578857422,20.05844438171387,119.59899578857421,20.270444381713865,119.81099578857422,20.48244438171387C120.02299578857422,20.693444381713867,120.12899578857422,20.905444381713867,120.23499578857422,21.22344438171387C120.33999578857421,21.435444381713868,120.33999578857421,21.646444381713867,120.33999578857421,21.964444381713868C120.23499578857422,22.282444381713866,120.12899578857422,22.599444381713866,120.02299578857422,22.81144438171387C119.81099578857422,23.23544438171387,119.59899578857421,23.55244438171387,119.17599578857423,23.764444381713865C118.75199578857422,23.97644438171387,118.43499578857421,24.082444381713866,118.01099578857422,24.187444381713867C117.58799578857422,24.29344438171387,117.16399578857423,24.399444381713867,116.74099578857422,24.399444381713867C116.31699578857422,24.50544438171387,115.99899578857422,24.50544438171387,115.57599578857422,24.611444381713866C115.25799578857422,24.717444381713868,114.94099578857421,24.823444381713866,114.62299578857422,25.035444381713866C114.41099578857421,25.246444381713868,114.09299578857421,25.56444438171387,113.98799578857422,25.882444381713867L113.14099578857422,27.78744438171387L115.04599578857422,28.846444381713866L116.21099578857422,27.364444381713867C116.42299578857421,27.152444381713867,116.63499578857422,27.04644438171387,116.95199578857422,26.940444381713867C117.37599578857422,26.834444381713865,117.69299578857422,26.72944438171387,118.01099578857422,26.72944438171387L119.17599578857423,26.623444381713867C119.59899578857421,26.623444381713867,120.02299578857422,26.517444381713865,120.44599578857422,26.30544438171387C120.97599578857422,26.093444381713866,121.29299578857422,25.882444381713867,121.71699578857422,25.56444438171387C122.13999578857423,25.140444381713866,122.45799578857422,24.717444381713868,122.77599578857422,24.187444381713867C123.09299578857421,23.658444381713867,123.30499578857422,23.023444381713865,123.41099578857421,22.387444381713866C123.41099578857421,21.858444381713866,123.41099578857421,21.22344438171387,123.19899578857422,20.693444381713867C122.98799578857422,20.05844438171387,122.66999578857423,19.529444381713866,122.24599578857422,19.105444381713866C121.82299578857422,18.576444381713866,121.29299578857422,18.152444381713867,120.65799578857423,17.835444381713867C120.23499578857422,17.623444381713867,119.81099578857422,17.411444381713867,119.28199578857422,17.199444381713867C118.85799578857421,17.093444381713866,118.32899578857422,16.98844438171387,117.90499578857421,16.882444381713867L116.63499578857422,16.882444381713867ZM110.59899578857421,30.329444381713866C110.38799578857422,30.54044438171387,110.17599578857421,30.752444381713865,110.06999578857422,30.964444381713868C109.96399578857422,31.176444381713868,109.85799578857421,31.38744438171387,109.85799578857421,31.599444381713866C109.75199578857422,31.81144438171387,109.75199578857422,32.12944438171387,109.85799578857421,32.340444381713866C109.85799578857421,32.55244438171387,110.06999578857422,32.764444381713865,110.17599578857421,32.97644438171387C110.38799578857422,33.18744438171387,110.59899578857421,33.39944438171386,110.81099578857422,33.50544438171387C111.23499578857422,33.71744438171387,111.76399578857422,33.82344438171387,112.29399578857422,33.71744438171387C113.35199578857421,33.39944438171386,113.98799578857422,32.44644438171387,113.66999578857421,31.38744438171387C113.56399578857422,31.176444381713868,113.45799578857422,30.964444381713868,113.35199578857421,30.752444381713865C113.14099578857422,30.54044438171387,112.92899578857421,30.329444381713866,112.71699578857422,30.22344438171387C112.29399578857422,29.905444381713867,111.76399578857422,29.905444381713867,111.23499578857422,30.011444381713865C111.02299578857422,30.011444381713865,110.81099578857422,30.22344438171387,110.59899578857421,30.329444381713866Z" fill-rule="evenodd" fill="#CED6E2" fill-opacity="1"/></g><g style="mix-blend-mode:passthrough"><path d="M44.42399155273438,12.647444091796874L60.51799155273437,29.482444091796875C61.046991552734376,30.117444091796877,61.046991552734376,30.964444091796874,60.41199155273438,31.493444091796874L43.99999155273437,47.05844409179687C43.364991552734374,47.587444091796876,42.51799155273437,47.587444091796876,41.98799155273437,46.95244409179688L21.446997552734373,25.246444091796874C20.917997552734374,24.611444091796876,20.917997552734374,23.764444091796875,21.552997552734375,23.235444091796875L33.51799155273437,12.011444091796875L44.42399155273438,12.647444091796874Z" fill="#F2F6FA" fill-opacity="1"/></g><g style="mix-blend-mode:passthrough"><path d="M33.41199779510498,11.799444198608398L37.85899779510498,16.458444198608397C38.49399779510498,17.0934441986084,39.55299779510498,17.0934441986084,40.18899779510498,16.458444198608397L44.31799779510498,12.5414441986084" fill="#D5DAE6" fill-opacity="1"/></g><g style="mix-blend-mode:passthrough"><path d="M34.893997703552245,25.35244398498535C34.78899770355225,25.67044398498535,34.682997703552246,25.988443984985352,34.682997703552246,26.305443984985352L35.84699770355225,26.517443984985352C36.058997703552244,26.62344398498535,36.37699770355225,26.62344398498535,36.48299770355224,26.41144398498535C36.588997703552245,26.305443984985352,36.69399770355225,26.19944398498535,36.69399770355225,26.093443984985353C36.69399770355225,25.988443984985352,36.69399770355225,25.776443984985352,36.79999770355224,25.564443984985353C36.905997703552245,25.24644398498535,37.01199770355225,25.035443984985353,37.11799770355225,24.823443984985353C37.329997703552245,24.61144398498535,37.54099770355224,24.294443984985353,37.752997703552246,24.082443984985353C37.96499770355224,23.87044398498535,38.176997703552246,23.764443984985352,38.387997703552244,23.65844398498535C38.59999770355225,23.552443984985352,38.811997703552244,23.44644398498535,39.02399770355225,23.44644398498535C39.23599770355224,23.44644398498535,39.44699770355225,23.44644398498535,39.658997703552245,23.552443984985352C39.87099770355225,23.65844398498535,40.082997703552245,23.764443984985352,40.18799770355225,23.97644398498535C40.399997703552245,24.294443984985353,40.61199770355225,24.61144398498535,40.71799770355224,24.92944398498535C40.823997703552244,25.24644398498535,40.823997703552244,25.564443984985353,40.823997703552244,25.88244398498535C40.823997703552244,26.19944398498535,40.823997703552244,26.517443984985352,40.71799770355224,26.835443984985353C40.71799770355224,27.152443984985354,40.61199770355225,27.47044398498535,40.61199770355225,27.788443984985353C40.61199770355225,28.10544398498535,40.61199770355225,28.317443984985353,40.71799770355224,28.63544398498535C40.823997703552244,28.95244398498535,41.03599770355225,29.16444398498535,41.246997703552246,29.37644398498535L42.51799770355225,30.54144398498535L43.78799770355225,29.37644398498535L42.94099770355224,28.10544398498535C42.72999770355224,27.893443984985353,42.72999770355224,27.68244398498535,42.72999770355224,27.47044398498535C42.72999770355224,27.152443984985354,42.83499770355225,26.94144398498535,42.83499770355225,26.62344398498535C42.94099770355224,26.305443984985352,42.94099770355224,25.988443984985352,43.04699770355225,25.67044398498535L43.04699770355225,24.61144398498535C42.94099770355224,24.18844398498535,42.83499770355225,23.764443984985352,42.72999770355224,23.44644398498535C42.62399770355225,23.023443984985352,42.305997703552244,22.599443984985353,41.987997703552246,22.282443984985353C41.564997703552244,21.96444398498535,41.140997703552245,21.64644398498535,40.71799770355224,21.43544398498535C40.29399770355224,21.329443984985353,39.76499770355225,21.22344398498535,39.34099770355225,21.22344398498535C38.917997703552246,21.22344398498535,38.387997703552244,21.329443984985353,37.96499770355224,21.541443984985353C37.435997703552246,21.75244398498535,37.01199770355225,22.070443984985353,36.58799770355225,22.494443984985352C36.27099770355225,22.811443984985353,35.95299770355225,23.12944398498535,35.740997703552246,23.44644398498535C35.52999770355225,23.764443984985352,35.317997703552244,24.082443984985353,35.21199770355225,24.399443984985353C35.10599770355225,24.71744398498535,34.999997703552246,25.035443984985353,34.893997703552245,25.35244398498535ZM44.10599770355225,33.188443984985355C44.21199770355224,33.39944398498535,44.317997703552244,33.61144398498535,44.423997703552246,33.71744398498535C44.52999770355225,33.929443984985355,44.740997703552246,34.03544398498535,45.058997703552244,34.14044398498535C45.37699770355225,34.24644398498535,45.79999770355225,34.24644398498535,46.22399770355224,34.14044398498535C46.43499770355225,34.14044398498535,46.646997703552245,33.929443984985355,46.752997703552246,33.82344398498535C46.96499770355224,33.61144398498535,47.070997703552244,33.50544398498535,47.176997703552246,33.29344398498535C47.176997703552246,33.08244398498535,47.28199770355225,32.87044398498535,47.28199770355225,32.658443984985354C47.28199770355225,32.44644398498535,47.28199770355225,32.23544398498535,47.176997703552246,32.02344398498535C46.96499770355224,31.38844398498535,46.329997703552245,30.964473984985354,45.69399770355224,30.964473984985354C45.48299770355224,30.964473984985354,45.27099770355225,30.964473984985354,45.058997703552244,31.07047398498535C44.84699770355225,31.17647398498535,44.634997703552244,31.28244398498535,44.52999770355225,31.38844398498535C44.21199770355224,31.70544398498535,43.999997703552246,32.12944398498535,43.999997703552246,32.55244398498535C43.999997703552246,32.76444398498535,43.999997703552246,32.97644398498535,44.10599770355225,33.188443984985355Z" fill-rule="evenodd" fill="#CED6E2" fill-opacity="1"/></g><g style="mix-blend-mode:passthrough"><path d="M86.45904399414063,39.11747640686035L80.21204399414063,61.45847640686035C80.00004399414063,62.19947640686035,79.15304399414063,62.72847640686035,78.41204399414062,62.41147640686035L56.70600399414062,56.05847640686035C55.96499899414062,55.84647640686035,55.43499899414063,54.99947640686035,55.75299909414063,54.25847640686035L64.22299399414062,25.45844640686035C64.43500399414063,24.717444406860352,65.28199399414062,24.188444406860352,66.02304399414062,24.50544480686035L81.80004399414062,29.16444640686035L86.45904399414063,39.11747640686035Z" fill="#F2F6FA" fill-opacity="1"/></g><g style="mix-blend-mode:passthrough"><path d="M81.80199908447265,29.203445434570312L79.78799968447265,35.51744543457031C79.57600008447265,36.364445434570314,80.10600008447265,37.31744543457032,80.95299908447265,37.52944543457031L86.53699908447265,39.10744543457031" fill="#D5DAE6" fill-opacity="1"/></g><g style="mix-blend-mode:passthrough"><path d="M70.78799884033204,37.42344485473633C70.47099884033203,37.529444854736326,70.15299884033203,37.63544485473633,69.83499884033203,37.74044485473633L70.36499884033204,38.90544485473633C70.36499884033204,39.11744485473633,70.57599884033203,39.32944485473633,70.78799884033204,39.32944485473633C70.93580884033203,39.40335485473633,71.03208884033204,39.37419485473633,71.11277884033203,39.349774854736324C71.14780884033203,39.339164854736325,71.17990884033203,39.32944485473633,71.21199884033203,39.32944485473633C71.31799884033204,39.32944485473633,71.52899884033204,39.22344485473633,71.74099884033203,39.22344485473633C71.95299884033203,39.11744485473633,72.26999884033204,39.11744485473633,72.48199884033203,39.11744485473633C72.90599884033203,39.11744485473633,73.22299884033202,39.11744485473633,73.54099884033204,39.22344485473633C73.85899884033203,39.32944485473633,74.06999884033203,39.43544485473633,74.28199884033204,39.54044485473633C74.49399884033203,39.752444854736325,74.70599884033203,39.85844485473633,74.81199884033204,40.07044485473633C74.91799884033203,40.282444854736326,75.02299884033204,40.493444854736325,75.02299884033204,40.70544485473633L75.02299884033204,41.234444854736324C74.91799884033203,41.65844485473633,74.70599884033203,41.97644485473633,74.49399884033203,42.18744485473633C74.17599884033203,42.39944485473633,73.96499884033203,42.61144485473633,73.64699884033203,42.71744485473633C73.32899884033203,42.92944485473633,73.01199884033203,43.03444485473633,72.69399884033203,43.14044485473633C72.48199884033203,43.246444854736325,72.16499884033203,43.352444854736326,71.84699884033203,43.45844485473633C71.52899884033204,43.56444485473633,71.31799884033204,43.776444854736326,71.10599884033203,43.987444854736324C70.89399884033203,44.19944485473633,70.68199884033203,44.41144485473633,70.68199884033203,44.72944485473633L70.36499884033204,46.42344485473633L72.05899884033204,47.16444485473633L72.69399884033203,45.78744485473633C72.69399884033203,45.57644485473633,72.90599884033203,45.36444485473633,73.11799884033204,45.258444854736325C73.32899884033203,45.15244485473633,73.64699884033203,45.04644485473633,73.85899884033203,44.94044485473633L74.81199884033204,44.62344485473633C75.12899884033203,44.517444854736326,75.44699884033203,44.30544485473633,75.76499884033203,44.093444854736326C76.08199884033203,43.88244485473633,76.39999884033203,43.56444485473633,76.61199884033203,43.246444854736325C76.92899884033203,42.82344485473633,77.14099884033203,42.39944485473633,77.24699884033203,41.97644485473633C77.35299884033203,41.55244485473633,77.45899884033203,41.023444854736326,77.35299884033203,40.493444854736325C77.24699884033203,40.07044485473633,77.03499884033204,39.64644485473633,76.82299884033203,39.22344485473633C76.50599884033203,38.79944485473633,76.18799884033203,38.48244485473633,75.76499884033203,38.16444485473633C75.34099884033203,37.846444854736326,74.81199884033204,37.529444854736326,74.28199884033204,37.42344485473633C73.85899884033203,37.31744485473633,73.43499884033203,37.21144485473633,73.01199884033203,37.21144485473633L71.84699884033203,37.21144485473633C71.42299884033203,37.21144485473633,71.10599884033203,37.31744485473633,70.78799884033204,37.42344485473633ZM68.56499884033204,49.38744485473633C68.35299884033203,49.493444854736325,68.35299884033203,49.70544485473633,68.24699884033203,49.91744485473633C68.24699884033203,50.12944485473633,68.24699884033203,50.340444854736326,68.14099884033203,50.44644485473633C68.24699884033203,50.65844485473633,68.24699884033203,50.764444854736325,68.35299884033203,50.97644485473633C68.45899884033203,51.081444854736326,68.56499884033204,51.29344485473633,68.77599884033204,51.39944485473633C68.88199884033203,51.61144485473633,69.09399884033203,51.61144485473633,69.30599884033204,51.71744485473633C69.62299884033203,51.82344485473633,70.04699884033204,51.82344485473633,70.47099884033203,51.61144485473633C71.21199884033203,51.29344485473633,71.52899884033204,50.340444854736326,71.10599884033203,49.599444854736326C70.99999884033203,49.493444854736325,70.78799884033204,49.28144485473633,70.68199884033203,49.17644485473633C70.57599884033203,49.07044485473633,70.36499884033204,48.96444485473633,70.15299884033203,48.85844485473633C69.83499884033203,48.752444854736325,69.41199884033203,48.752444854736325,68.98799884033203,48.96444485473633C68.88199884033203,49.07044485473633,68.67099884033203,49.17644485473633,68.56499884033204,49.38744485473633Z" fill-rule="evenodd" fill="#CED6E2" fill-opacity="1"/></g><g style="mix-blend-mode:passthrough"><path d="M137.49297353515624,77.34047360229492L116.95197353515626,88.45747360229493C116.31697353515625,88.77547360229492,115.36397353515625,88.56347360229492,115.04597353515625,87.82247360229492L104.77600053515626,67.81147360229492C104.45800053515624,67.17547360229491,104.67000053515625,66.22247360229493,105.41100053515625,65.90547360229492L132.09297353515626,51.822443602294925C132.72897353515626,51.505443602294925,133.68197353515626,51.71744380229492,133.99897353515624,52.45844360229492L141.41097353515624,66.96347360229493L137.49297353515624,77.34047360229492Z" fill="#F2F6FA" fill-opacity="1"/></g><g style="mix-blend-mode:passthrough"><path d="M141.30499755371093,67.17544555664062L135.58699655371095,70.14044555664063C134.84599655371093,70.56444555664062,134.52899655371093,71.62244555664063,134.84599655371093,72.36444555664062L137.38699755371093,77.44644555664063" fill="#D5DAE6" fill-opacity="1"/></g><g style="mix-blend-mode:passthrough"><path d="M127.96398781738282,64.84644720458985C127.64598781738282,64.74044720458984,127.43498781738282,64.52844720458984,127.1169878173828,64.42244720458984L126.5869878173828,65.69344720458984C126.48198781738282,65.79944720458984,126.48198781738282,66.11744720458984,126.5869878173828,66.22244720458984C126.69298781738281,66.43444720458984,126.79898781738281,66.43444720458984,126.90498781738282,66.54044720458984C127.01098781738281,66.64644720458985,127.22298781738282,66.75244720458984,127.32898781738281,66.85844720458985C127.53998781738281,66.96444720458985,127.75198781738281,67.17544720458984,127.8579878173828,67.28144720458984C128.0699878173828,67.59944720458985,128.2819878173828,67.81144720458984,128.38698781738282,68.12844720458985C128.5989878173828,68.44644720458984,128.5989878173828,68.65844720458985,128.7049878173828,68.86944720458985C128.7049878173828,68.98473720458985,128.7188878173828,69.08608720458984,128.7316878173828,69.17856720458984C128.7539878173828,69.34116720458985,128.7725878173828,69.47630720458984,128.7049878173828,69.61144720458984C128.7049878173828,70.14044720458985,128.2819878173828,70.45844720458985,127.96398781738282,70.66944720458984C127.53998781738281,70.88144720458985,127.22298781738282,70.98744720458984,126.90498781738282,70.98744720458984C126.48198781738282,70.88144720458985,126.2700078173828,70.88144720458985,125.9520078173828,70.77544720458984C125.52900781738282,70.66944720458984,125.31700781738282,70.45844720458985,124.99900781738282,70.35244720458985C124.78700781738281,70.24644720458984,124.57600781738282,70.03444720458984,124.25800781738282,69.92844720458984C123.9400078173828,69.82244720458985,123.72900781738281,69.82244720458985,123.41100781738281,69.82244720458985C123.09300781738281,69.82244720458985,122.77600781738282,69.82244720458985,122.56400781738282,70.03444720458984L121.18800781738281,70.98744720458984L121.92900781738281,72.57544720458985L123.30500781738282,72.04644720458984C123.41100781738281,71.83444720458985,123.72900781738281,71.83444720458985,123.9400078173828,71.94044720458984C124.15200781738281,72.04644720458984,124.47000781738281,72.15244720458985,124.68200781738281,72.25844720458984L125.52900781738282,72.68144720458984C125.84600781738281,72.89344720458985,126.2700078173828,72.89344720458985,126.5869878173828,72.99944720458984C126.90498781738282,73.10544720458984,127.43498781738282,73.10544720458984,127.75198781738281,72.99944720458984C128.1759878173828,72.89344720458985,128.7049878173828,72.78744720458984,129.0229878173828,72.57544720458985C129.44598781738281,72.36444720458985,129.86998781738282,72.04644720458984,130.1869878173828,71.62244720458985C130.39898781738282,71.19944720458984,130.6109878173828,70.77544720458984,130.7169878173828,70.35244720458985C130.7169878173828,70.17162720458984,130.72938781738281,70.00326720458985,130.74138781738282,69.83885720458984C130.76468781738282,69.52136720458984,130.78688781738282,69.21862720458984,130.7169878173828,68.86944720458985C130.7169878173828,68.44644720458984,130.6109878173828,67.81144720458984,130.29298781738282,67.38744720458985C130.0819878173828,66.96444720458985,129.86998781738282,66.64644720458985,129.5519878173828,66.32844720458985C129.33998781738282,66.01144720458984,129.1289878173828,65.79944720458984,128.81098781738282,65.48144720458984C128.4929878173828,65.16444720458985,128.2819878173828,64.95244720458984,127.96398781738282,64.84644720458985ZM117.35899881738281,71.68163720458985C117.33099381738282,71.69676720458985,117.30167981738282,71.71260720458984,117.26999881738281,71.72844720458984C117.16399881738282,71.94044720458984,116.8459988173828,71.94044720458984,116.74099881738282,72.04644720458984C116.74099881738282,72.25844720458984,116.63499881738281,72.36444720458985,116.52899891738281,72.57544720458985C116.52899891738281,72.60521720458985,116.52064231738281,72.64333720458984,116.51096821738281,72.68745720458985C116.48618736738281,72.80049720458985,116.45276131738281,72.95297720458984,116.52899891738281,73.10544720458984C116.52899891738281,73.31644720458985,116.52899891738281,73.52844720458984,116.63499881738281,73.74044720458984C116.74099881738282,74.05844720458984,117.05799881738281,74.37544720458985,117.48199781738282,74.48144720458984L118.01099781738282,74.48144720458984C118.22299781738282,74.48144720458984,118.43499781738281,74.48144720458984,118.6459978173828,74.37544720458985C118.96399781738282,74.26944720458984,119.28199781738282,73.84644720458985,119.38799781738281,73.52844720458984L119.38799781738281,72.99944720458984C119.38799781738281,72.78744720458984,119.38799781738281,72.57544720458985,119.28199781738282,72.36444720458985C119.17599781738281,72.04644720458984,118.85799781738281,71.72844720458984,118.43499781738281,71.62244720458985C118.40523781738281,71.62244720458985,118.36711781738282,71.61409720458984,118.32298781738281,71.60441720458985C118.20994781738281,71.57963720458984,118.05747781738282,71.54621720458985,117.9049978173828,71.62244720458985C117.63536781738281,71.53228720458985,117.51838781738282,71.59550720458985,117.35899881738281,71.68163720458985Z" fill-rule="evenodd" fill="#CED6E2" fill-opacity="1"/></g><g style="mix-blend-mode:passthrough"><path d="M116.96999827575684,65.3754440612793L116.96999827575684,82.95144406127929L115.46999827575684,82.95144406127929L116.96999827575684,82.95144406127929Q116.96999827575684,85.2406440612793,115.29989827575683,86.9110440612793Q113.62969827575684,88.5814440612793,111.34099827575685,88.5814440612793L111.34099827575685,87.0814440612793L111.34099827575685,88.5814440612793L53.211998275756834,88.5814440612793L53.211998275756834,87.0814440612793L53.211998275756834,88.5814440612793Q50.922628275756836,88.5814440612793,49.25266227575683,86.9109440612793Q47.582998275756836,85.2407440612793,47.582998275756836,82.95144406127929L49.082998275756836,82.95144406127929L47.582998275756836,82.95144406127929L47.582998275756836,63.8934440612793Q47.582998275756836,63.819753761279294,47.59021827575683,63.7464180612793Q47.59744827575683,63.6730830612793,47.61181827575684,63.6008090612793Q47.626198275756835,63.528534061279295,47.64758827575684,63.4580170612793Q47.668978275756835,63.3875000612793,47.69717827575683,63.3194190612793Q47.72537827575684,63.2513380612793,47.76011827575684,63.186349061279294Q47.79485827575684,63.1213600612793,47.83579827575684,63.0600890612793Q47.876738275756836,62.9988170612793,47.923478275756835,62.941854061279294Q47.97022827575684,62.8848940612793,48.02233827575684,62.8327840612793Q48.074448275756836,62.7806740612793,48.13140827575683,62.733924061279296Q48.188371275756836,62.6871840612793,48.24964327575684,62.6462440612793Q48.310914275756836,62.6053040612793,48.37590327575683,62.5705640612793Q48.44089227575684,62.5358240612793,48.50897327575684,62.507624061279294Q48.577054275756836,62.479424061279296,48.64757127575684,62.4580340612793Q48.718088275756834,62.436644061279296,48.79036327575684,62.4222640612793Q48.86263727575684,62.40789406127929,48.93597227575684,62.40066406127929Q49.00930797575683,62.3934440612793,49.082998275756836,62.3934440612793Q49.15668857575684,62.3934440612793,49.23002427575683,62.40066406127929Q49.30335927575683,62.40789406127929,49.37563327575683,62.4222640612793Q49.44790827575684,62.436644061279296,49.51842527575683,62.4580340612793Q49.588942275756835,62.479424061279296,49.657023275756835,62.507624061279294Q49.725104275756834,62.5358240612793,49.79009327575684,62.5705640612793Q49.855082275756835,62.6053040612793,49.91635327575683,62.6462440612793Q49.977625275756836,62.6871840612793,50.03458827575684,62.733924061279296Q50.091548275756836,62.7806740612793,50.143658275756835,62.8327840612793Q50.19576827575683,62.8848940612793,50.24251827575684,62.941854061279294Q50.289258275756836,62.9988170612793,50.330198275756835,63.0600890612793Q50.371138275756834,63.1213600612793,50.405878275756834,63.186349061279294Q50.44061827575683,63.2513380612793,50.46881827575684,63.3194190612793Q50.49701827575684,63.3875000612793,50.51840827575683,63.4580170612793Q50.53979827575684,63.528534061279295,50.55417827575683,63.6008090612793Q50.56854827575684,63.6730830612793,50.57577827575684,63.7464180612793Q50.582998275756836,63.819753761279294,50.582998275756836,63.8934440612793L50.582998275756836,82.95144406127929L50.582998275756836,82.95144406127929Q50.582998275756836,83.9983440612793,51.374338275756834,84.7899440612793Q52.16555827575684,85.5814440612793,53.211998275756834,85.5814440612793L53.211998275756834,85.5814440612793L111.34099827575685,85.5814440612793L111.34099827575685,85.5814440612793Q112.38689827575683,85.5814440612793,113.17839827575683,84.7898440612793Q113.96999827575684,83.9981440612793,113.96999827575684,82.95144406127929L113.96999827575684,82.95144406127929L113.96999827575684,65.3754440612793Q113.96999827575684,65.3017540612793,113.97719827575683,65.2284140612793Q113.98449827575683,65.1550840612793,113.99879827575684,65.08280406127929Q114.01319827575684,65.0105340612793,114.03459827575684,64.9400140612793Q114.05599827575683,64.8695000612793,114.08419827575683,64.80141906127929Q114.11239827575683,64.7333380612793,114.14709827575683,64.6683490612793Q114.18189827575684,64.6033600612793,114.22279827575683,64.5420890612793Q114.26369827575684,64.4808170612793,114.31049827575684,64.4238540612793Q114.35719827575683,64.36689106127929,114.40929827575684,64.3147840612793Q114.46139827575684,64.26267706127929,114.51839827575684,64.2159280612793Q114.57539827575684,64.16918006127929,114.63659827575684,64.1282400612793Q114.69789827575684,64.0872990612793,114.76289827575684,64.0525620612793Q114.82789827575684,64.0178250612793,114.89599827575684,63.989624761279295Q114.96409827575684,63.961424661279295,115.03459827575684,63.9400335612793Q115.10509827575683,63.918642361279296,115.17739827575683,63.904266161279295Q115.24959827575684,63.889889871279294,115.32299827575683,63.8826669612793Q115.39629827575683,63.875444061279296,115.46999827575684,63.875444061279296Q115.54369827575684,63.875444061279296,115.61699827575684,63.8826669612793Q115.69039827575683,63.889889871279294,115.76259827575683,63.904266161279295Q115.83489827575684,63.918642361279296,115.90539827575684,63.9400335612793Q115.97589827575683,63.961424661279295,116.04399827575683,63.989624761279295Q116.11209827575684,64.0178250612793,116.17709827575683,64.0525620612793Q116.24209827575683,64.0872990612793,116.30329827575683,64.1282400612793Q116.36459827575683,64.16918006127929,116.42159827575684,64.2159280612793Q116.47849827575683,64.26267706127929,116.53069827575683,64.3147840612793Q116.58279827575683,64.36689106127929,116.62949827575683,64.4238540612793Q116.67629827575684,64.4808170612793,116.71719827575684,64.5420890612793Q116.75809827575684,64.6033600612793,116.79289827575684,64.6683490612793Q116.82759827575684,64.7333380612793,116.85579827575684,64.80141906127929Q116.88399827575684,64.8695000612793,116.90539827575684,64.9400140612793Q116.92679827575684,65.0105340612793,116.94119827575683,65.08280406127929Q116.95559827575684,65.1550840612793,116.96279827575684,65.2284140612793Q116.96999827575684,65.3017540612793,116.96999827575684,65.3754440612793Z" fill="#1676EE" fill-opacity="1"/></g><g style="mix-blend-mode:passthrough"><path d="M113.24599761962891,54.046443939208984L93.34099761962891,54.046443939208984C91.43499761962892,54.046443939208984,89.52899761962891,54.68144393920898,88.04699761962891,55.95244393920898L82.7529976196289,60.18744393920898C81.26999761962891,61.35244393920898,79.3639976196289,62.09344393920898,77.4589976196289,62.09344393920898L54.799997619628904,62.09344393920898C52.576997619628905,62.09344393920898,50.670997619628906,63.893443939208986,50.670997619628906,66.22244393920899C50.670997619628906,66.43444393920899,50.670997619628906,66.64644393920898,50.77699761962891,66.85844393920898L54.905997619628906,88.56344393920898C55.2239976196289,90.57544393920898,57.02399761962891,92.16344393920897,59.03499761962891,92.16344393920897L107.42299761962892,92.16344393920897C109.54099761962891,92.16344393920897,111.2349976196289,90.68144393920898,111.5519976196289,88.66944393920897L117.3759976196289,58.811443939208985C117.69299761962891,56.58744393920898,116.21099761962891,54.469443939208986,113.8819976196289,54.152443939208986C113.6699976196289,54.046443939208984,113.45799761962891,54.046443939208984,113.24599761962891,54.046443939208984Z" fill="#FFFFFF" fill-opacity="1"/></g><g style="mix-blend-mode:passthrough" filter="url(#master_svg1_0_401719)"><path d="M118.75199809265136,50.12844467163086L95.03499809265136,50.12844467163086C92.81099809265137,50.12844467163086,90.48199809265137,50.97644467163086,88.78799809265136,52.35244467163086L82.43499809265137,57.54044467163086C80.63499809265136,59.023444671630855,78.41199809265137,59.764444671630855,76.18799809265137,59.764444671630855L48.97699809265137,59.764444671630855C46.329998092651365,59.764444671630855,43.99999809265137,61.88144467163086,43.99999809265137,64.74044467163085C43.99999809265137,64.95244467163086,43.99999809265137,65.26944467163086,44.10599809265137,65.48144467163085L49.082998092651366,91.84644467163086C49.50599809265137,94.28144467163085,51.51799809265137,96.18744467163086,54.058998092651365,96.18744467163086L111.76399809265136,96.18744467163086C114.19899809265137,96.18744467163086,116.31699809265136,94.38744467163086,116.74099809265137,91.95244467163086L123.62299809265137,55.84644467163086C124.04599809265137,53.19944467163086,122.24599809265136,50.55244467163086,119.49399809265137,50.12844467163086C119.28199809265136,50.12844467163086,118.96399809265137,50.12844467163086,118.75199809265136,50.12844467163086Z" fill="url(#master_svg2__054548)" fill-opacity="1"/></g><g style="mix-blend-mode:passthrough"><path d="M73.01199740600586,77.86944506835937C74.38799740600587,77.86944506835937,75.55299740600586,76.70544506835938,75.55299740600586,75.32844506835937C75.55299740600586,73.95244506835938,74.38799740600587,72.78744506835938,73.01199740600586,72.78744506835938C71.63499740600587,72.78744506835938,70.46999740600586,73.95244506835938,70.46999740600586,75.32844506835937C70.46999740600586,76.70544506835938,71.63499740600587,77.86944506835937,73.01199740600586,77.86944506835937Z" fill="#989FB0" fill-opacity="1"/></g><g style="mix-blend-mode:passthrough"><path d="M92.8109966430664,77.44644091796874C94.18799664306641,77.44644091796874,95.3529966430664,76.28144091796875,95.3529966430664,74.90544091796875C95.3529966430664,73.52844091796875,94.18799664306641,72.36444091796875,92.8109966430664,72.36444091796875C91.43499664306641,72.36444091796875,90.2699966430664,73.52844091796875,90.2699966430664,74.90544091796875C90.2699966430664,76.28144091796875,91.43499664306641,77.44644091796874,92.8109966430664,77.44644091796874Z" fill="#989FB0" fill-opacity="1"/></g><g style="mix-blend-mode:passthrough"><path d="M88.25799783325195,81.6814475L86.88199783325196,81.6814475C85.71699783325195,79.3524475,82.85899783325195,78.3994445,80.63499783325196,79.6694475C79.68199783325196,80.0934475,78.94099783325196,80.9404475,78.62299783325196,81.6814475L77.24699783325195,81.6814475C78.41199783325196,78.6104445,81.90599783325196,77.0224445,84.86999783325196,78.1874445C86.45899783325196,78.8224475,87.62299783325196,80.0934475,88.25799783325195,81.6814475Z" fill="#989FB0" fill-opacity="1"/></g><g style="mix-blend-mode:passthrough"><path d="M127.98809719238281,104.74844708251953C128.1102971923828,104.76524708251952,128.23519719238283,104.76344708251953,128.3869971923828,104.76344708251953C130.2929971923828,104.76344708251953,131.13999719238282,102.54044708251953,129.76399719238282,101.26944708251953L121.39899719238281,92.90444708251954C127.4339971923828,84.11644708251953,121.08199719238281,72.57544708251953,110.81099719238281,72.57544708251953C103.71699719238282,72.57544708251953,97.89399719238281,78.39944708251953,97.89399719238281,85.49344708251954C97.89399719238281,96.08144708251953,109.9639971923828,102.32844708251953,118.64599719238281,95.86944708251953C126.47209719238282,103.69554708251954,127.17299719238281,104.63614708251953,127.98809719238281,104.74844708251953ZM102.02299719238282,85.59944708251953C102.02299719238282,80.62244708251953,106.04599719238281,76.70544708251953,110.91699719238281,76.70544708251953C115.78699719238281,76.70544708251953,119.81099719238281,80.62244708251953,119.70499719238282,85.70544708251953C119.70499719238282,86.12844708251953,119.59899719238281,86.44644708251953,119.59899719238281,86.86944708251953C119.59899719238281,87.39944708251953,119.49299719238282,87.92844708251953,119.28199719238282,88.45744708251954C119.06999719238281,88.98744708251954,118.85799719238281,89.51644708251953,118.64599719238281,89.94044708251953C118.43499719238281,90.36344708251953,118.11699719238281,90.78744708251953,117.79899719238281,91.21044708251954C117.4819971923828,91.52844708251953,117.05799719238281,91.95244708251953,116.73999719238282,92.26944708251953C116.31699719238281,92.69344708251953,115.89299719238281,93.01044708251953,115.36399719238281,93.32844708251953C114.9399971923828,93.54044708251953,114.51699719238282,93.75144708251953,113.9879971923828,93.96344708251954C113.56399719238281,94.17544708251953,113.03499719238282,94.28144708251953,112.50499719238282,94.38744708251953C111.9759971923828,94.49344708251954,111.4459971923828,94.49344708251954,110.91699719238281,94.49344708251954C105.94099719238281,94.49344708251954,102.02299719238282,90.57544708251953,102.02299719238282,85.59944708251953Z" fill-rule="evenodd" fill="#989FB0" fill-opacity="1"/></g><g style="mix-blend-mode:passthrough"><path d="M72.83681938964844,68.57819932177735L67.11982238964843,71.64820232177735L66.41017638964844,70.32668232177734L72.12717938964843,67.25668532177734L72.83681938964844,68.57819932177735Z" fill="#989FB0" fill-opacity="1"/></g><g style="mix-blend-mode:passthrough"><path d="M97.42373969482422,70.16104543457031L91.70573869482422,66.98404743457031L92.43426069482422,65.67284343457031L98.15225969482422,68.84984543457031L97.42373969482422,70.16104543457031Z" fill="#989FB0" fill-opacity="1"/></g></g></svg>