<svg t="1681132856804" class="icon" viewBox="0 0 1024 1024" version="1.1" xmlns="http://www.w3.org/2000/svg" p-id="4625" width="300" height="300"><path d="M540.8 504m-168 0a168 168 0 1 0 336 0 168 168 0 1 0-336 0Z" fill="#95EAFF" p-id="4626"></path><path d="M512 144C308.752 144 144 308.752 144 512s164.752 368 368 368 368-164.752 368-368S715.248 144 512 144z m0 704c-185.568 0-336-150.432-336-336s150.432-336 336-336 336 150.432 336 336-150.432 336-336 336z" fill="#49A3FE" p-id="4627"></path><path d="M512 320c-106.032 0-192 85.968-192 192s85.968 192 192 192 192-85.968 192-192-85.968-192-192-192z m0 352c-88.368 0-160-71.632-160-160s71.632-160 160-160 160 71.632 160 160-71.632 160-160 160z" fill="#49A3FE" p-id="4628"></path><path d="M512 404.272a16 16 0 0 0 16-16V288a16 16 0 0 0-32 0v100.272a16 16 0 0 0 16 16zM496 740.272a16 16 0 0 0 32 0V640a16 16 0 0 0-32 0v100.272zM239.888 496H96v-16a16 16 0 0 0-32 0v64a16 16 0 0 0 32 0v-16h143.888a16 16 0 0 0 0-32zM384.432 496h-96.624a16 16 0 0 0 0 32h96.624a16 16 0 0 0 0-32zM736.432 496h-96.624a16 16 0 0 0 0 32h96.624a16 16 0 0 0 0-32zM544 64h-64a16 16 0 0 0 0 32h16v132.72a16 16 0 0 0 32 0V96h16a16 16 0 0 0 0-32zM544 928h-16v-120.208a16 16 0 0 0-32 0V928h-16a16 16 0 0 0 0 32h64a16 16 0 0 0 0-32zM944 464a16 16 0 0 0-16 16v16h-136a16 16 0 0 0 0 32H928v16a16 16 0 0 0 32 0v-64a16 16 0 0 0-16-16z" fill="#0F13AE" p-id="4629"></path><path d="M512 512m-48 0a48 48 0 1 0 96 0 48 48 0 1 0-96 0Z" fill="#49A3FE" p-id="4630"></path></svg>