<?xml version="1.0" standalone="no"?><!DOCTYPE svg PUBLIC "-//W3C//DTD SVG 1.1//EN" "http://www.w3.org/Graphics/SVG/1.1/DTD/svg11.dtd"><svg t="1681289617125" class="icon" viewBox="0 0 1024 1024" version="1.1" xmlns="http://www.w3.org/2000/svg" p-id="2079" xmlns:xlink="http://www.w3.org/1999/xlink" width="300" height="300"><path d="M517.888 509.696m-450.816 0a450.816 450.816 0 1 0 901.632 0 450.816 450.816 0 1 0-901.632 0Z" fill="#FFBC42" p-id="2080"></path><path d="M738.7648 300.9536H494.1824c-5.0176 0-9.7792-1.8944-13.4656-5.3248L425.0112 243.456a19.58912 19.58912 0 0 0-13.4656-5.3248h-107.008c-37.1712 0-67.328 30.1568-67.328 67.328v402.944c0 37.1712 30.1568 67.328 67.328 67.328h434.176c37.1712 0 67.328-30.1568 67.328-67.328V368.3328c0.0512-37.2224-30.1056-67.3792-67.2768-67.3792z m-110.2336 251.8528a36.44928 36.44928 0 0 1-26.368 11.2128 36.5568 36.5568 0 0 1-25.4464-10.2912l-16.7424-16.128v102.4c0 20.224-16.384 36.6592-36.6592 36.6592a36.6592 36.6592 0 0 1-36.6592-36.6592v-104.448l-16.2816 15.3088a36.69504 36.69504 0 0 1-51.8144-1.536 36.65408 36.65408 0 0 1 1.5872-51.8144l77.7216-73.1648a36.608 36.608 0 0 1 50.5344 0.3072l79.1552 76.3392a36.55168 36.55168 0 0 1 0.9728 51.8144z" fill="#FFFFFF" p-id="2081"></path></svg>