<?xml version="1.0" standalone="no"?><!DOCTYPE svg PUBLIC "-//W3C//DTD SVG 1.1//EN" "http://www.w3.org/Graphics/SVG/1.1/DTD/svg11.dtd"><svg t="1681809931447" class="icon" viewBox="0 0 1025 1024" version="1.1" xmlns="http://www.w3.org/2000/svg" p-id="3397" xmlns:xlink="http://www.w3.org/1999/xlink" width="16.015625" height="16"><path  d="M1019.732043 356.70016c-16.82432-59.96544-87.5008-100.08576-188.29312-116.8896 15.04256 17.80736 28.6208 36.85376 40.58112 57.0368 56.15616 16.11776 94.1568 41.17504 102.912 72.3968 5.09952 18.08384 0.72704 39.29088-12.94336 62.976-14.75584 25.61024-41.33888 54.2208-78.35648 83.01568 0.02048-1.83296 0.256-3.60448 0.256-5.43744 0-205.54752-166.61504-372.14208-372.13184-372.14208-205.5168 0-372.15232 166.6048-372.15232 372.14208 0 62.94528 15.7696 122.17344 43.33568 174.12096-73.59488-14.97088-124.06784-43.33568-134.37952-80.09728-5.08928-18.13504-0.72704-39.26016 12.9536-62.98624 7.44448-12.88192 18.85184-26.69568 32.06144-40.74496 0.55296-24.1664 2.95936-47.89248 7.43424-70.89152C25.694283 490.77248-12.715957 557.64992 3.780683 616.38656c18.23744 64.91136 99.39968 106.63936 213.69856 120.61696 68.06528 88.03328 174.39744 144.93696 294.28736 144.93696 182.48704 0 333.98784-131.45088 365.73184-304.77312C982.181963 507.16672 1039.280203 426.21952 1019.732043 356.70016L1019.732043 356.70016zM511.756363 835.44064c-88.95488 0-169.50272-35.7376-228.25984-93.57312 7.92576 0.23552 15.872 0.4096 24.05376 0.4096 80.90624 0 172.0832-11.4176 266.06592-35.44064 93.45024-23.9104 177.60256-57.35424 247.4496-95.65184C778.436683 741.33504 656.160843 835.44064 511.756363 835.44064L511.756363 835.44064zM834.746443 549.3248c-68.37248 42.91584-160.09216 83.68128-272.60928 112.45568-87.06048 22.28224-175.08352 34.00704-254.57664 34.00704-22.9888 0-44.52352 1.9968-65.3312 0.1024-35.3792-52.11136-56.09472-118.35392-56.09472-186.08128 0-179.83488 145.7664-325.632 325.632-325.632 179.83488 0 325.62176 145.79712 325.62176 325.632C837.378123 523.20256 836.333643 536.34048 834.746443 549.3248L834.746443 549.3248zM348.889163 602.84928c-51.31264 0-93.04064-41.73824-93.04064-93.04064 0-51.29216 41.728-93.0304 93.04064-93.0304s93.04064 41.73824 93.04064 93.0304C441.929803 561.11104 400.201803 602.84928 348.889163 602.84928L348.889163 602.84928zM348.889163 463.28832c-25.6512 0-46.52032 20.86912-46.52032 46.52032 0 25.6512 20.87936 46.52032 46.52032 46.52032 25.64096 0 46.51008-20.86912 46.51008-46.52032C395.399243 484.1472 374.530123 463.28832 348.889163 463.28832L348.889163 463.28832zM606.445643 408.2688c-32.08192 0-58.15296-26.09152-58.15296-58.14272 0-32.06144 26.07104-58.15296 58.15296-58.15296 32.06144 0 58.15296 26.08128 58.15296 58.15296C664.588363 382.17728 638.507083 408.2688 606.445643 408.2688L606.445643 408.2688zM606.445643 338.50368c-6.41024 0-11.63264 5.21216-11.63264 11.6224s5.2224 11.6224 11.63264 11.6224 11.63264-5.21216 11.63264-11.6224S612.855883 338.50368 606.445643 338.50368L606.445643 338.50368z" fill="currentColor" p-id="3398"></path></svg>