<?xml version="1.0" standalone="no"?><!DOCTYPE svg PUBLIC "-//W3C//DTD SVG 1.1//EN" "http://www.w3.org/Graphics/SVG/1.1/DTD/svg11.dtd"><svg t="1682496099820" class="icon" viewBox="0 0 1024 1024" version="1.1" xmlns="http://www.w3.org/2000/svg" p-id="9382" xmlns:xlink="http://www.w3.org/1999/xlink" width="16" height="16"><path d="M524.6976 307.456a1194.1888 1194.1888 0 0 1-119.8592-5.7344 26.3168 26.3168 0 0 1-23.4496-26.4704c0-6.144-1.9968-7.8848-3.1744-8.96-10.7008-9.1648-41.3184-8.704-55.296-6.4a26.2656 26.2656 0 0 1-30.72-26.7264l2.4576-89.5488A26.3168 26.3168 0 0 1 327.68 118.8352l79.1552 20.0704L397.1584 87.04A26.2656 26.2656 0 0 1 424.96 56.32l186.9312 11.776a26.3168 26.3168 0 0 1 22.9888 34.6112l-6.0416 17.5616 23.9616-14.8992a26.368 26.368 0 0 1 28.16 0.256l44.6976 28.8256a26.3168 26.3168 0 0 1-1.4336 45.1072c-14.4896 8.192-53.8624 35.84-61.44 64-11.6224 42.3936-58.0608 63.8976-138.0864 63.8976zM430.08 250.88c20.48 1.5872 54.6816 3.6864 94.7712 3.6864 59.2896 0 83.968-13.4656 87.04-24.9856 6.7584-24.9344 23.8592-46.08 40.96-62.5152L593.92 204.0832a26.3168 26.3168 0 0 1-38.8096-30.72l18.944-54.9376-118.9376-7.68L465.92 169.7792a26.3168 26.3168 0 0 1-32.3584 30.3104l-87.04-22.1184-0.768 27.7504c21.0944 0.3072 47.872 4.4544 66.56 20.48A60.3648 60.3648 0 0 1 430.08 250.88zM509.1328 938.5984h-5.12c-72.9088 0-203.8272-5.12-261.12-36.3008-83.3024-45.056-105.6768-148.48-66.56-307.2C203.0592 486.4 276.9408 427.3664 330.9056 384.3072a392.5504 392.5504 0 0 0 46.08-40.2432 31.5392 31.5392 0 0 1 31.8976-9.472c54.272 14.7456 175.36 18.4832 202.6496-19.968a31.5904 31.5904 0 0 1 54.4768 5.12c24.3712 53.1456 56.32 84.1216 89.9072 116.8896 32.7168 31.7952 66.56 64.7168 89.1392 116.5312 39.7824 91.3408 45.056 189.44 14.1312 261.888-20.1216 47.2576-54.7328 81.152-100.096 97.9456-51.0464 18.8416-165.1712 25.6-249.9584 25.6zM410.7264 399.7184c-12.032 11.3152-25.9072 22.4256-40.3968 33.9456-52.0704 41.5744-111.104 88.576-132.8128 176.5888-31.3856 127.232-19.5584 206.7968 35.2256 236.3904 74.7008 40.448 392.1408 33.8944 464.2304 7.168 29.0816-10.8032 50.5856-32.1024 63.8976-63.4368 23.9104-56.32 18.5344-137.3184-13.9264-211.968-17.6128-40.3456-44.288-66.56-75.264-96.4096-27.5456-26.8288-58.0608-56.32-84.1216-99.6352-64 36.5056-168.0896 26.5728-216.832 17.3568zM840.5504 382.1568a26.2144 26.2144 0 0 1-21.3504-10.7008c-51.2-69.2224-76.8-66.304-133.12-59.9552a26.3168 26.3168 0 0 1-5.9392-52.3264c69.4784-7.8336 115.4048-8.192 181.2992 80.9984a26.368 26.368 0 0 1-21.1456 41.984z" fill="currentColor" p-id="9383"></path><path d="M536.2176 796.5696v36.1984a8.192 8.192 0 0 1-7.9872 7.9872H492.032a8.192 8.192 0 0 1-7.9872-7.9872V798.72a321.9456 321.9456 0 0 1-52.1728-6.912 8.0896 8.0896 0 0 1-7.4752-7.9872v-28.7744a7.6288 7.6288 0 0 1 7.4752-7.5264h1.0752c15.9744 2.0992 55.9104 4.2496 70.8096 4.2496 35.84 0 46.08-12.7488 46.08-36.1984 0-15.36-7.4752-23.4496-34.0992-39.424l-52.736-31.3856c-37.2736-21.8624-47.36-45.2608-47.36-73.472 0-36.7616 18.0736-65.536 68.1472-73.5232v-33.4848a8.192 8.192 0 0 1 7.9872-7.9872h36.1984a8.192 8.192 0 0 1 7.9872 7.9872v31.9488a429.5168 429.5168 0 0 1 56.32 6.4c4.2496 1.0752 7.424 3.7376 7.424 7.4752v29.7984a6.8608 6.8608 0 0 1-6.912 7.4752h-1.0752c-26.624-2.6624-52.6848-4.3008-78.7968-4.3008-29.7984 0-42.0864 10.6496-42.0864 28.2624 0 13.312 6.9632 21.2992 33.024 35.84l47.9232 26.624c44.1856 24.5248 55.9104 50.0736 55.9104 81.92 0.4096 33.9968-17.664 70.7072-71.4752 80.8448z" fill="currentColor" p-id="9384"></path></svg>