<?xml version="1.0" standalone="no"?><!DOCTYPE svg PUBLIC "-//W3C//DTD SVG 1.1//EN" "http://www.w3.org/Graphics/SVG/1.1/DTD/svg11.dtd"><svg t="1685503643853" class="icon" viewBox="0 0 1024 1024" version="1.1" xmlns="http://www.w3.org/2000/svg" p-id="2123" xmlns:xlink="http://www.w3.org/1999/xlink" width="32" height="32"><path fill="currentColor" d="M1009.335 660.923c-17.473-14.8-43.64-12.653-58.44 4.83L733.247 922.655l-93.729-86.876c-16.795-15.58-43.034-14.558-58.593 2.227-15.569 16.794-14.567 43.023 2.227 58.593l125.527 116.345A41.435 41.435 0 0 0 736.862 1024c0.83 0 1.66-0.021 2.5-0.071a41.465 41.465 0 0 0 29.135-14.587l245.668-289.977c14.799-17.473 12.643-43.64-4.83-58.442z" p-id="2124"></path><path fill="currentColor" d="M512 0.006C229.234 0.006 0.007 229.233 0.007 512c0 282.763 229.227 511.993 511.993 511.993 3.208 0 6.407-0.04 9.602-0.099 2.101-0.038 4.198-0.09 6.292-0.153 14.793-1.907 26.225-14.54 26.225-29.852 0-16.299-12.953-29.564-29.126-30.085a468.48 468.48 0 0 1-12.992 0.188c-61.044 0-120.232-11.942-175.916-35.495-53.817-22.763-102.161-55.36-143.691-96.892-41.53-41.528-74.128-89.874-96.89-143.688C71.949 632.231 60.007 573.045 60.007 512c0-61.044 11.942-120.233 35.496-175.916 22.762-53.817 55.36-102.161 96.89-143.691s89.874-74.128 143.69-96.89C391.77 71.949 450.957 60.006 512 60.006s120.232 11.943 175.92 35.496c53.813 22.762 102.158 55.36 143.687 96.889 41.53 41.53 74.128 89.875 96.891 143.692 23.554 55.684 35.495 114.873 35.495 175.916 0 13.3-0.567 26.51-1.697 39.615-0.095 1.098-0.2 2.192-0.304 3.29-0.016 0.395-0.03 0.79-0.03 1.19 0 16.628 13.48 30.108 30.109 30.108 14.521 0 26.64-10.28 29.479-23.959a518.915 518.915 0 0 0 2.443-50.244C1023.993 229.233 794.765 0.006 512 0.006z" p-id="2125"></path><path fill="currentColor" d="M300.049 500.074c7.496-9.334 7.917-27.574 0.865-37.533-7.377-10.413-11.081-14.723-26.758-25.938-14.093-10.083-29.69-17.504-41.703-22.843-0.472-0.21-1.125-0.5-1.665-0.757l0.03-0.337c0.828-8.671 1.9-18.952 3.586-29.455 2.852-17.775 8.8-35.723 19.287-58.196 6.775-14.524 16.224-28.98 30.636-46.874 0.83-1.031 1.395-1.634 1.765-1.985 0.798 0.288 1.597 0.586 2.43 0.898 2.875 1.075 6.134 2.293 9.759 3.125 3.296 0.755 7.193 1.702 11.105 3.004 3.188 1.06 6.095 1.577 8.888 1.577 3.953 0 7.62-1.061 10.9-3.154 3.296-2.102 6.114-5.113 9.138-9.764 2.112-3.246 4.612-6.514 7.633-9.978a9.012 9.012 0 0 0 1.109-1.581c2.889-5.226 1.939-9.261 0.634-11.727-2.876-5.43-8.777-5.973-10.994-6.177l-0.205-0.02c-4.267-0.401-8.708-1.067-13.581-2.036-8.182-1.627-16.456-3.866-24.92-6.21-1.203-0.332-2.701-0.908-4.3-1.523-3.932-1.51-8.826-3.39-14.084-3.39-2.821 0-5.501 0.539-7.968 1.602-4.44 1.916-7.293 5.165-9.6 7.79-0.451 0.516-0.897 1.027-1.353 1.509-0.822 0.87-1.647 1.717-2.52 2.614-2.728 2.797-5.547 5.69-8.177 9.27-2.003 2.729-4.25 5.48-6.484 8.216-3 3.673-6.101 7.472-8.947 11.63-4.765 6.962-9.258 14.37-13.735 22.649-23.048 42.597-34.31 87.223-33.47 132.639 0.299 16.144 16.247 22.6 26.795 26.872l0.102 0.042c2.017 0.819 3.922 1.593 5.382 2.295 19.538 9.413 27.836 14.138 44.216 30.192 1.912 1.873 3.855 3.476 5.738 5.029 1.673 1.378 3.254 2.68 4.644 4.053 0.299 0.295 0.85 0.942 1.348 1.524 2.853 3.342 7.165 8.393 13.888 8.395 4.006-0.001 7.766-1.935 10.586-5.447z" p-id="2126"></path><path fill="currentColor" d="M837.847 398.626c-0.26-2.884-0.528-5.867-0.667-8.726-0.298-5.972-1.262-12.422-2.865-19.168-3.017-12.715-5.852-23.094-8.923-32.664-6.059-18.888-14.454-36.82-25.664-54.823-4.325-6.942-9.079-13.616-13.676-20.071l-0.128-0.18a774.917 774.917 0 0 1-6.192-8.765 8.957 8.957 0 0 0-1.559-1.716 73.124 73.124 0 0 0-2.129-1.73c-1.684-1.328-2.984-2.394-3.156-3.042a9.114 9.114 0 0 0-4.336-5.567 9.016 9.016 0 0 0-7.902-4.643h-4.664a9.032 9.032 0 0 0-6.763 3.035c-0.224 0.108-0.457 0.229-0.695 0.364-1.589 0.907-3.057 1.854-4.476 2.77l-0.115 0.074c-3.282 2.125-6.118 3.959-8.93 4.322a9.03 9.03 0 0 0-2.885 0.88l-2.345 1.174a9.09 9.09 0 0 0-2.12 1.478c-1.224 1.145-3.768 1.726-6.46 2.342-0.824 0.188-1.64 0.375-2.439 0.578-1.307 0.33-2.624 0.698-3.94 1.068-3.502 0.983-6.81 1.913-9.635 1.913a10.22 10.22 0 0 1-2.028-0.188c-10.516-2.093-18.426-4.103-25.65-6.517-3.582-1.196-7.2-2.296-10.768-3.38-8.66-2.633-16.84-5.12-24.414-8.945a9.112 9.112 0 0 0-2.15-0.762c-8.655-1.881-16.26-4.641-23.23-8.424a8.96 8.96 0 0 0-2.693-0.958c-5.69-1.05-11.258-3.353-17.17-5.798-2.297-0.951-4.898-2.028-7.5-3.01-1.713-0.644-3.397-1.194-5.026-1.726l-0.113-0.037c-3.816-1.244-7.112-2.32-9.628-4.156a8.999 8.999 0 0 0-5.1-1.737 9.06 9.06 0 0 0-6.272-2.335c-6.47-3.48-13.033-5.174-20.018-5.174-2.244 0-4.548 0.186-6.845 0.553-3.929 0.627-8.105 0.993-12.16 1.348-4.137 0.364-8.413 0.74-12.717 1.397-14.134 2.159-25.956 3.893-37.203 5.455-2.888 0.4-5.78 0.78-8.676 1.16-6.335 0.829-12.887 1.687-19.44 2.796l-3.983 0.676c-12.651 2.152-25.732 4.378-38.45 5.452-14.001 1.18-25.091 6.708-34.901 17.39l-1.845 2.008a4450.666 4450.666 0 0 0-17.468 19.09 11.214 11.214 0 0 0-3.802 4.27 9.16 9.16 0 0 0-0.616 1.546c-0.37 0.445-1.766 1.428-2.524 1.962a8.968 8.968 0 0 0-1.962 1.877c-7.856 10.19-17.64 20.173-29.91 30.52-2.048 1.724-6.583 6.655-4.481 15.18 2.107 8.562 6.964 15.84 14.044 21.05 18.927 13.927 36.299 20.698 53.109 20.698 0.656 0 1.31-0.011 1.982-0.031 13.615-0.44 33.819-5.53 48.042-12.1 7.296-3.372 14.577-8.024 21.654-12.547 5.905-3.775 12.012-7.68 17.795-10.583 1.704-0.856 3.043-1.877 4.035-2.633l0.075-0.057c9.19 1.738 18.388 2.548 27.299 3.333 3.18 0.28 6.786 0.597 10.274 0.958 2.899 0.3 5.856 0.67 8.736 1.03 5.885 0.733 11.971 1.492 18.203 1.772 0.453 0.02 0.928 0.03 1.492 0.04 0.801 0.015 2.117 0.04 2.61 0.182 7.395 4.897 12.29 8.082 17.913 11.729 3.898 2.53 8.03 5.213 13.625 8.884 13.631 8.944 22.305 14.763 31.487 20.922l0.495 0.333c6.843 4.589 13.918 9.334 23.665 15.796 3.577 2.37 7.16 4.736 10.74 7.1l2.538 1.677c15.631 10.315 31.794 20.98 47.328 31.875 14.32 10.042 28.672 20.643 42.551 30.895l0.223 0.164c4.111 3.036 8.22 6.07 12.332 9.094a2326.488 2326.488 0 0 0 7.141 5.237c1.506 1.1 3.028 2.172 4.552 3.246l0.311 0.219c6.61 4.646 12.854 9.033 16.99 15.134 2.663 3.938 1.402 11.406-0.77 13.83-1.504 1.673-4.485 2.798-7.432 2.798-1.873 0-3.71-0.447-5.313-1.292-12.474-6.582-26.104-13.92-42.896-23.091-15.48-8.452-28.493-15.616-41.674-23.113-3.815-2.167-7.76-4.286-11.24-6.155-6.123-3.29-12.454-6.69-18.316-10.394-5.318-3.36-11.703-7.072-18.742-9.136a21.416 21.416 0 0 0-6.013-0.886c-8.87 0-16.367 5.88-20.054 15.73-3.36 8.989 1.347 20.387 10.717 25.947 2.997 1.78 6.025 3.349 8.953 4.866l0.09 0.046c2.125 1.1 4.322 2.237 6.39 3.4a4878.49 4878.49 0 0 0 80.574 44.327c6.622 3.566 12.317 7.013 14.941 13.087 2.121 4.913-0.094 10.983-3.465 14.017-1.827 1.646-3.956 2.518-6.156 2.518-1.669 0-3.438-0.47-5.26-1.396-14.187-7.209-26.659-13.774-38.132-20.07-11.276-6.192-22.709-12.577-33.767-18.752l-0.23-0.13c-11.559-6.455-21.986-12.272-32.562-18.087a20.18 20.18 0 0 0-9.696-2.466c-8.13 0-15.834 4.736-19.626 12.067-5.48 10.61-1.4 24.222 8.905 29.724 2.591 1.386 5.185 2.768 7.777 4.15l3.851 2.054c13.908 7.411 29.672 15.812 44.608 24.054 8.998 4.968 15.396 9.655 19.485 17.66 1.667 3.27 1.16 8.62-1.184 12.446-1.412 2.31-4.035 5.063-8.44 4.493l-1.509-0.189c-4.585-0.576-8.207-1.032-11.272-2.694l-2.306-1.25c-6.33-3.436-12.878-6.987-19.44-10.346-5.279-2.703-10.873-5.499-15.367-7.746-8.372-4.186-17.029-8.514-25.506-13.037-3.663-1.952-7.697-2.984-11.667-2.984-7.639 0-14.09 3.615-17.706 9.923-3.424 5.99-4.364 12.545-2.646 18.46 1.604 5.52 5.438 10.114 10.795 12.94a746.18 746.18 0 0 1 8.012 4.307l0.7 0.38c7.597 4.122 15.453 8.385 23.643 11.984 5.964 2.625 9.303 6.871 10.826 13.766 0.516 2.345-0.407 4.446-2.743 6.247-1.736 1.34-3.22 2.018-4.407 2.018-0.576 0-1.165-0.144-1.86-0.454a3364.573 3364.573 0 0 0-14.63-6.444c-9.924-4.352-20.184-8.85-30.139-13.476-1.56-0.723-3.666-1.552-6.124-1.552-4.596 0-8.094 2.5-10.402 7.442-1.476 3.17-3.192 6.473-4.709 9.393l-0.398 0.77c-0.567 1.094-1.135 2.187-1.693 3.285-2.07 4.06-2.341 8.472-0.766 12.424 3.268 8.192 12.951 11.618 20.072 14.138 1.315 0.465 2.806 0.992 3.461 1.302 2.98 1.401 6.034 2.977 9.007 4.51 11.87 6.12 24.143 12.446 39.291 12.446 0.656 0 1.315-0.012 1.984-0.037 11.5-0.429 21.704-4.476 28.722-11.382a47.539 47.539 0 0 1 1.865-1.696c1.565-1.376 3.341-2.935 5.06-5.145 5.31-6.836 8.992-15.444 10.418-24.32l0.717 0.208c2.55 0.75 4.957 1.456 7.242 1.558 0.787 0.034 1.582 0.052 2.37 0.052 15.204 0 29.905-6.385 39.326-17.08 5.431-6.172 9.296-12.357 11.815-18.912 1.567-4.07 2.184-8.04 2.536-11.755 4.46 0.85 9.113 1.153 14.093 0.918 16.775-0.784 30.076-7.9 39.532-21.148 6.72-9.404 10.388-18.62 11.132-28.02 2.475-0.21 4.792-0.649 6.896-1.048l0.396-0.074c4.921-0.93 9.212-2.117 13.121-3.63a46.428 46.428 0 0 0 7.618-3.765c7.47-4.608 13.514-11.346 17.482-19.483 3.526-7.238 5.611-14.383 6.196-21.235 0.813-9.5-0.57-18.946-4.002-27.317a68.279 68.279 0 0 0-12.35-19.696c-1.735-1.938-3.573-3.614-5.413-5.12 2.14-1.551 3.4-2.16 4.487-2.196a9.206 9.206 0 0 0 3.726-0.946l4.686-2.341a9.46 9.46 0 0 0 1.647-1.066c3.602-2.932 8.185-4.631 13.457-6.586l0.303-0.11a9.063 9.063 0 0 0 3.418-2.262c0.796-0.84 2.686-1.631 4.52-2.4l0.162-0.068c0.912-0.384 1.855-0.78 2.834-1.245 7.57-3.584 8.82-9.245 9.064-13.775 0.352-6.456-0.2-12.6-0.734-18.54zM527.77 244.963l0.542 4.972c4.606-0.405 9.366-0.823 14.626-1.636a36.468 36.468 0 0 0 7.846 3.495 40.689 40.689 0 0 0 6.948 2.527c4.984 2.476 9.49 3.945 13.131 5.132l0.133 0.043c1.137 0.37 2.313 0.754 3.128 1.063 1.92 0.723 4.05 1.604 6.195 2.492 5.892 2.44 12.551 5.198 20.376 7.176 8.054 3.926 16.777 7.07 25.942 9.352 9.612 4.408 19.06 7.276 27.401 9.81l0.134 0.04c3.323 1.012 6.461 1.966 9.45 2.964 9.041 3.02 18.593 5.467 30.967 7.93a54.213 54.213 0 0 0 10.594 1.033c8.864 0 16.187-2.058 21.523-3.558l0.352-0.098c0.881-0.246 1.707-0.477 2.406-0.655 0.422-0.105 0.853-0.203 1.372-0.322l0.14-0.031c4.32-0.99 11.475-2.626 18.903-7.18 0.306-0.096 0.61-0.195 0.914-0.296 4.221 5.922 8.208 11.543 11.734 17.203 9.283 14.908 16.196 29.64 21.133 45.04 2.72 8.47 5.267 17.813 8.014 29.398 0.99 4.163 1.571 7.933 1.731 11.207 0.13 2.627 0.32 5.085 0.526 7.478-3.363 1.484-7.456 3.522-11.642 6.3-3.916 1.083-7.77 2.684-11.479 4.768-5.31 1.419-10.189 3.655-14.522 6.655l-7.013 2.733c-12.592-9.297-26.65-19.65-40.53-29.388-16.023-11.235-32.43-22.063-48.297-32.535l-1.07-0.705c-4.064-2.683-8.13-5.366-12.188-8.057-9.56-6.338-16.537-11.017-23.366-15.596l-0.566-0.38c-9.29-6.232-18.067-12.12-31.885-21.186a2938.73 2938.73 0 0 0-13.542-8.832l-0.47-0.303a2016.897 2016.897 0 0 1-17.493-11.458c-10.718-7.1-21.334-7.297-25.866-7.381l-0.412-0.008c-4.503-0.206-9.454-0.823-14.695-1.477l-0.148-0.02c-3.036-0.378-6.176-0.77-9.476-1.11a698.412 698.412 0 0 0-10.627-0.996l-0.321-0.03c-8.617-0.757-16.755-1.473-24.103-2.954a40.064 40.064 0 0 0-7.924-0.794c-8.828 0-17.205 2.902-24.905 8.628-7.022 3.673-13.475 7.798-19.735 11.799-6.075 3.884-11.812 7.553-16.424 9.684-8.616 3.98-23.424 7.833-31.037 8.079-3.31 0.084-6.914-0.652-11.001-2.307a209.575 209.575 0 0 0 9.287-10.685c4.07-3.328 7.32-6.953 9.918-11.058 5.827-6.417 11.845-12.966 17.165-18.756l1.762-1.918c2.412-2.626 3.69-3.144 6.308-3.364 14.583-1.231 28.596-3.617 42.15-5.924l3.912-0.666c5.75-0.972 11.618-1.74 17.836-2.554l0.402-0.053c2.81-0.37 5.706-0.748 8.596-1.15 11.306-1.57 23.315-3.331 37.791-5.541 2.9-0.442 6.294-0.742 9.888-1.06l-0.439-4.98z" p-id="2127"></path><path fill="currentColor" d="M521.603 609.417a121.284 121.284 0 0 0 3.596-5.938c2.558-4.535 4.457-8.784 5.807-12.988 1.54-4.73 2.323-9.15 2.397-13.507 0.133-5.622-1.093-10.935-3.543-15.364-1.459-2.627-3.569-5.075-6.107-7.084-1.7-1.309-3.597-2.36-5.795-3.214-3.249-2.827-6.362-4.859-9.791-6.394-4.056-1.814-8.327-2.734-12.693-2.734-0.97 0-1.887 0.044-2.893 0.14a30.69 30.69 0 0 0-2.473 0.362 28.39 28.39 0 0 0-1.09-5.616l-0.07-0.224c-1.064-3.24-2.654-6.04-4.73-8.325a21.376 21.376 0 0 0-5.822-4.438c-3.008-3.162-5.97-5.483-9.312-7.3-4.271-2.357-9.025-3.604-13.751-3.604-0.773 0-1.603 0.036-2.333 0.102a28.7 28.7 0 0 0-4.62 0.756 10.281 10.281 0 0 0-0.141-0.699c-0.548-2.28-1.324-4.972-2.912-7.635-0.701-1.302-1.504-2.3-2.09-3.028l-0.062-0.08a7.845 7.845 0 0 1-0.191-0.243 9.22 9.22 0 0 0-1.134-1.244 16.388 16.388 0 0 1-0.363-0.35c-0.611-0.597-1.535-1.5-2.798-2.32-1.687-1.213-3.633-2.172-5.948-2.93a86.56 86.56 0 0 0-3.266-2.481 8.13 8.13 0 0 0-0.461-0.304l-2.636-1.635c-0.701-0.433-1.76-1.087-3.067-1.632l-0.196-0.088c-1.626-0.74-3.651-1.658-6.085-2.217-2.625-0.77-5.044-0.9-7.178-1.013l-0.275-0.016a8.486 8.486 0 0 0-0.451-0.012l-0.244 0.004c-0.916 0.02-1.854 0.085-2.796 0.194a29.877 29.877 0 0 0-1.136-6.162c-1.665-5.715-5.148-10.721-9.806-14.091-3.42-2.514-7.322-4.222-11.932-5.22-2.57-1.702-6.043-3.795-10.2-5.012-2.368-0.83-4.594-1.1-6.385-1.318l-0.606-0.073c-0.17-0.024-0.34-0.04-0.574-0.058-1-0.064-2.001-0.038-3.037 0.013a34.16 34.16 0 0 1-0.694 0.027l-0.391 0.019c-0.524 0.026-1.053 0.056-1.595 0.108-0.3 0.03-0.601 0.077-0.893 0.136l-1.263 0.254c-4.602 0.816-9.047 2.7-13.99 5.93a7.76 7.76 0 0 0-0.27 0.187l-2.46 1.74a8.929 8.929 0 0 0-0.606 0.466l-2.281 1.913c-1.106 0.909-2.024 1.79-2.944 2.689l-0.607 0.594a60.172 60.172 0 0 0-2.01 2.019l-2.796 2.999-3.922 4.4-10.475 12.11c-3.883 4.429-8.907 10.417-13.327 17.47-2.73 4.38-4.662 8.252-6.083 12.183-0.943 2.541-1.634 5.092-2.054 7.58-0.531 3.01-0.678 5.944-0.436 8.72 0.252 3.11 0.932 6.091 2.02 8.863a32.638 32.638 0 0 0 3.993 7.2c3.053 4.102 6.372 6.71 8.602 8.313 2.306 1.662 4.24 2.723 5.559 3.445l0.218 0.116c0.024 0.016 0.08 0.048 0.169 0.096l1.852 0.927c0.148 0.08 0.53 0.275 1.184 0.558l1.789 0.777c0.15 0.062 0.365 0.146 0.475 0.186 1.778 0.656 4.753 1.756 8.706 2.325 4.555 0.676 9.505 0.456 14.195-0.636 0.3-0.073 0.603-0.148 0.905-0.228 0.263 2.03 0.698 4.01 1.296 5.893 1.556 4.85 4.042 8.46 5.85 10.632 2.046 2.5 4.014 4.1 5.212 5.074l0.16 0.131c0.11 0.093 0.218 0.175 0.245 0.191a39.652 39.652 0 0 0 2.092 1.504l0.383 0.263c0.165 0.115 0.334 0.223 0.497 0.32l1.628 0.978c2.71 1.56 5.389 2.688 8.185 3.453 2.918 0.834 6.167 1.274 9.393 1.274 1.344 0 2.72-0.078 4.099-0.233a40.535 40.535 0 0 0 3.353-0.557c0.029 0.137 0.06 0.271 0.09 0.401 1.096 5.055 3.349 8.933 5.047 11.298 1.886 2.592 3.623 4.358 4.74 5.376 1.054 1.001 1.736 1.546 1.91 1.682l0.553 0.453c0.309 0.255 0.885 0.73 1.583 1.22 1.189 0.865 3.664 2.667 7.202 4.214 2.72 1.175 7.07 2.574 12.344 2.574 0.528 0 1.06-0.016 1.43-0.036 3.289-0.128 6.65-0.77 10-1.91a29.852 29.852 0 0 0 2.702 6.352c1.773 3.12 4.038 5.857 6.92 8.365a37.587 37.587 0 0 0 5.014 3.71c0.38 0.247 1.123 0.717 1.804 1.071l2.134 1.147c0.21 0.115 0.424 0.221 0.648 0.32l2.303 1.021c0.967 0.417 1.968 0.754 2.772 1.023l0.9 0.308c0.168 0.061 0.337 0.111 0.53 0.167 3.69 1.037 7.172 1.575 10.639 1.644 0.318 0.01 0.637 0.013 0.959 0.013 3.925 0 8.058-0.605 11.949-1.75 9.189-2.65 16.794-8.022 21.554-12.059 4.554-3.828 8.83-8.263 13.073-13.56 3.396-4.29 5.532-7.505 7.43-10.433z m-62.17 5.105c-0.673-0.578-0.68-0.813-0.683-0.936l-0.011-0.238c-0.05-0.897 0.85-3.685 2.94-6.817 2.5-3.774 5.78-7.083 8.095-9.197 0.496-0.46 0.972-0.872 1.495-1.326l0.17-0.147c0.537-0.464 1.1-0.95 1.735-1.523a78.672 78.672 0 0 0 3.79-3.694c2.07-2.16 3.723-4.08 5.375-6.022l2.657-3.166c1.352-1.614 2.42-2.89 3.27-3.857 4.3-4.96 7.574-8.302 10.584-9.623 1.339-0.543 2.808-0.813 4.489-0.823l-0.003-0.5 0.09 0.5c1.317 0 2.839 0.168 4.528 0.5 0.14 0.377 0.153 0.56 0.153 0.563 0.077 1.207-0.173 2.603-0.81 4.526-0.667 2.036-1.621 4.298-3.004 7.117-1.317 2.708-2.905 5.661-4.854 9.031a104.914 104.914 0 0 1-2.763 4.51c-1.465 2.234-3.236 4.88-5.722 8.01-2.986 3.701-6.031 6.864-9.055 9.401-3.576 3.05-7.461 5.322-10.666 6.237-1.271 0.376-2.526 0.574-3.623 0.574l-0.308-0.004c-0.87-0.015-1.775-0.149-2.806-0.409a35.027 35.027 0 0 0-0.77-0.26l-1.223-0.494-1.474-0.773-0.206-0.135c-0.527-0.335-0.924-0.608-1.39-1.025z m6.879-75.287c-0.228 1.262-0.765 2.67-1.78 4.668-2.427 4.727-5.786 9.775-10.08 15.896l-0.68 0.937c-1.616 2.24-4.06 5.622-9.112 11.322l-2.571 2.826-2.757 3.115c-1.562 1.771-3.631 4.088-5.79 6.307-5.542 5.7-9.35 8.158-11.574 9.22-1.106 0.544-2.183 0.863-3.028 0.9l-0.1 0.003c-0.073 0-0.208 0-0.582-0.146-0.435-0.203-0.83-0.47-1.502-0.956l-0.155-0.105a2.136 2.136 0 0 0-0.122-0.103l-0.523-0.423a6.384 6.384 0 0 1-0.25-0.229 12.177 12.177 0 0 0-0.33-0.308 6.438 6.438 0 0 1-0.7-0.82c-0.185-0.265-0.361-0.514-0.066-1.722 0.579-2.43 2.71-6.128 5.852-10.147 3.23-4.149 6.966-8.038 10.194-11.296 4.47-4.52 7.762-8.352 10.407-11.429l1.104-1.283c3.015-3.524 4.724-5.486 5.9-6.774 4.779-5.282 8.07-8.558 10.737-9.664 0.08-0.03 0.16-0.066 0.278-0.118 0.41-0.177 1.17-0.389 2.452-0.389 1.36 0 3.005 0.247 4.778 0.718z m-141.061-2.944c-1.3-0.929-1.831-1.585-1.96-1.76-0.348-0.485-0.361-0.682-0.376-0.898l-0.016-0.19c-0.1-1.07 0.798-5.006 4.21-10.346 3.288-5.242 7.356-10.074 10.536-13.7l10.418-12.086 3.448-3.901 2.452-2.67c4.949-5.2 8.717-9.02 12.22-10.872l0.463-0.27 0.225-0.086c0.369-0.14 0.737-0.293 1.07-0.436l1.026-0.297c0.854-0.23 1.104-0.275 1.156-0.28 0.333-0.016 0.667-0.053 0.966-0.101 1.019-0.161 2.692-0.153 4.79 0.025 1.255 1.174 1.903 2.117 2.227 2.709 0.48 0.873 0.688 1.698 0.67 2.669-0.101 3.103-1.605 7.386-4.73 13.472l-0.236 0.439c-1.22 2.262-3.063 5.68-7.915 12.132a140.855 140.855 0 0 1-5.057 6.278 176.815 176.815 0 0 1-3.127 3.57l-3.794 4.163-0.666 0.747c-2.247 2.517-4.368 4.895-6.525 7.003-2.453 2.401-4.608 4.186-6.595 5.458-1.635 1.073-3.394 1.89-4.82 2.235-1.124 0.26-2.15 0.313-3.173 0.172-0.737-0.102-1.461-0.348-2.218-0.616l-2.177-1.027-0.213 0.452 0.115-0.507c-0.724-0.403-1.544-0.86-2.394-1.48z m97.63-19.555c-1.456 4.21-3.848 9.037-7.997 16.14a104.25 104.25 0 0 1-2.816 4.51c-1.537 2.313-3.31 4.894-5.853 8.09a71.653 71.653 0 0 1-2.021 2.426c-0.327 0.375-0.658 0.735-0.983 1.084l-1.544 1.637c-1.752 1.871-3.932 4.2-6.204 6.4-4.667 4.544-9.051 7.857-12.683 9.583-2.04 1-3.585 1.284-4.143 1.358-0.791 0.084-1.471 0.046-2.142-0.14a5.18 5.18 0 0 1-1.21-0.506l-0.768-0.46c-0.041-0.029-0.08-0.058-0.096-0.065l-0.104-0.07a9.013 9.013 0 0 1-0.308-0.218l-0.125-0.105c-0.338-0.28-0.63-0.524-0.813-0.753-0.391-0.479-0.491-0.777-0.492-0.778-0.21-0.696-0.264-1.472-0.167-2.446 0.244-2.8 1.886-6.949 4.393-11.102 2.257-3.763 5.21-7.712 8.775-11.732l4.717-5.157 6.164-6.875c2.792-3.155 4.679-5.24 5.937-6.563l0.228-0.238c2.47-2.58 4.604-4.81 6.372-6.18 1.462-1.149 2.709-1.886 4-2.375 1.207-0.335 2.68-0.506 4.382-0.506 1.84 0 3.926 0.2 6.2 0.592a0.71 0.71 0 0 1 0.04 0.1l0.02 0.292c0.092 0.978-0.143 2.231-0.758 4.057z m-61.254-61.807z" p-id="2128"></path></svg>