<?xml version="1.0" standalone="no"?><!DOCTYPE svg PUBLIC "-//W3C//DTD SVG 1.1//EN" "http://www.w3.org/Graphics/SVG/1.1/DTD/svg11.dtd"><svg t="1686292946851" class="icon" viewBox="0 0 1024 1024" version="1.1" xmlns="http://www.w3.org/2000/svg" p-id="14225" xmlns:xlink="http://www.w3.org/1999/xlink" width="32" height="32"><path d="M594.011852 264.324084M452.467115 295.000757c14.849196-14.776542 34.514071-22.889313 55.372122-22.889313 20.957311 0 40.647769 8.112772 55.369052 22.889313 30.503734 30.43415 30.503734 80.120782 0 110.554932-14.721283 14.691607-34.411741 22.874987-55.285141 22.874987-20.941961 0-40.606837-8.182356-55.456033-22.874987C421.992033 374.992603 421.992033 325.434907 452.467115 295.000757L452.467115 295.000757zM957.346951 911.343197 846.393953 688.173418c-3.608178-7.416923-11.025101-11.951193-19.153222-11.951193L682.673148 676.222225c0 0-114.590851 147.001005-180.107007 147.001005-68.029396 0-173.527149-147.001005-173.527149-147.001005L197.86751 676.222225c-8.112772 0-15.541975 4.533246-19.138896 11.951193L67.662029 911.343197c-3.308349 6.707772-3.01159 14.776542 0.910743 21.058618 3.919263 6.349615 10.838859 10.327206 18.271132 10.327206l851.251587 0c7.516184 0 14.366196-3.864004 18.244526-10.327206C960.260304 926.020478 960.672696 918.050969 957.346951 911.343197L957.346951 911.343197zM413.549757 679.149904c32.992415 64.86124 73.160253 74.579579 94.102215 74.579579 36.402071 0 69.705572-26.497491 93.904717-74.67884 12.120039-24.067138 34.81083-56.151881 61.081147-93.177146 54.871725-77.324086 123.073036-173.443237 123.073036-240.71948 0-153.778362-125.304867-278.838659-279.394315-278.838659-154.059771 0-279.32166 125.060297-279.32166 278.838659 0 67.617004 68.073398 162.187893 122.860189 238.190891C377.037169 621.080348 400.621307 653.648091 413.549757 679.149904L413.549757 679.149904z" fill="currentColor" p-id="14226"></path></svg>