<?xml version="1.0" standalone="no"?><!DOCTYPE svg PUBLIC "-//W3C//DTD SVG 1.1//EN" "http://www.w3.org/Graphics/SVG/1.1/DTD/svg11.dtd"><svg t="1686102830040" class="icon" viewBox="0 0 1024 1024" version="1.1" xmlns="http://www.w3.org/2000/svg" p-id="14717" xmlns:xlink="http://www.w3.org/1999/xlink" width="32" height="32"><path fill="currentColor" d="M405.333333 128a85.333333 85.333333 0 0 1 66.56 32L533.333333 234.666667h320a85.333333 85.333333 0 0 1 85.333334 85.333333v490.666667a85.333333 85.333333 0 0 1-85.333334 85.333333H170.666667a85.333333 85.333333 0 0 1-85.333334-85.333333V213.333333a85.333333 85.333333 0 0 1 85.333334-85.333333z m0 85.333333H170.666667v597.333334h682.666666V320H533.333333a85.333333 85.333333 0 0 1-66.56-32z m106.666667 170.666667a42.666667 42.666667 0 0 1 42.666667 42.666667v85.333333h85.333333a42.666667 42.666667 0 0 1 0 85.333333h-85.333333v85.333334a42.666667 42.666667 0 0 1-85.333334 0v-85.333334h-85.333333a42.666667 42.666667 0 0 1 0-85.333333h85.333333v-85.333333a42.666667 42.666667 0 0 1 42.666667-42.666667z" p-id="14718"></path></svg>