<?xml version="1.0" standalone="no"?><!DOCTYPE svg PUBLIC "-//W3C//DTD SVG 1.1//EN" "http://www.w3.org/Graphics/SVG/1.1/DTD/svg11.dtd"><svg t="1683944138127" class="icon" viewBox="0 0 1024 1024" version="1.1" xmlns="http://www.w3.org/2000/svg" p-id="5252" xmlns:xlink="http://www.w3.org/1999/xlink" width="16" height="16"><path d="M397.3 645.4c-17.1 17.1-17.1 45.1 0 62.2s45.1 17.1 62.2 0l164.1-164c17.1-17.1 17.1-45.1 0-62.2l-164-164c-17.1-17.1-45.1-17.1-62.2 0s-17.1 45.1 0 62.2l85.7 85.7H111c-26 0-47.2 21.1-47.2 47.2 0 26 21.1 47.2 47.2 47.2h372l-85.7 85.7z" p-id="5253"></path><path d="M524.1 77.5c-143.6 0-271 69.6-350.2 177h106.4c31-29.3 66.5-52.5 105.7-69.1 43.7-18.5 90.2-27.9 138.1-27.9s94.4 9.4 138.1 27.9c42.3 17.9 80.2 43.5 112.9 76.1 32.6 32.6 58.2 70.6 76.1 112.9 18.5 43.7 27.9 90.2 27.9 138.1s-9.4 94.4-27.9 138.1c-17.9 42.3-43.5 80.2-76.1 112.9-32.6 32.6-70.6 58.2-112.9 76.1-43.7 18.5-90.2 27.9-138.1 27.9s-94.4-9.4-138.1-27.9c-39.2-16.6-74.7-39.8-105.7-69.1H173.9c79.2 107.4 206.6 177 350.2 177 240.2 0 435-194.7 435-435s-194.8-435-435-435z" p-id="5254"></path></svg>