<?xml version="1.0" standalone="no"?><!DOCTYPE svg PUBLIC "-//W3C//DTD SVG 1.1//EN" "http://www.w3.org/Graphics/SVG/1.1/DTD/svg11.dtd"><svg t="1683944189076" class="icon" viewBox="0 0 1024 1024" version="1.1" xmlns="http://www.w3.org/2000/svg" p-id="5660" xmlns:xlink="http://www.w3.org/1999/xlink" width="16" height="16"><path d="M631.125333 965.063111a50.915556 50.915556 0 0 1-50.915555-50.915555v-142.506667c0-28.103111 22.755556-50.915556 50.915555-50.915556h123.960889v-46.819555a132.323556 132.323556 0 0 1 264.362667-9.557334c0.113778 0.796444-7.111111 13.937778-26.737778 22.300445-19.569778 8.419556-34.019556-14.563556-34.019555-17.863111a71.509333 71.509333 0 0 0-73.784889-66.048 71.281778 71.281778 0 0 0-68.721778 71.111111v46.876444h100.010667c28.103111 0 50.915556 22.755556 50.915555 50.915556v142.506667c0 28.16-22.755556 50.915556-50.915555 50.915555h-285.070223z m274.887111-162.872889a20.366222 20.366222 0 0 0-20.366222-20.366222h-223.971555a20.366222 20.366222 0 0 0-20.366223 20.366222v81.408c0 11.264 9.102222 20.366222 20.366223 20.366222h223.971555c11.264 0 20.366222-9.102222 20.366222-20.366222v-81.408zM295.139556 739.783111h191.544888a26.453333 26.453333 0 1 1 0 52.906667H268.686222a44.145778 44.145778 0 0 1-44.145778-44.088889V259.697778c0-24.348444 19.797333-44.088889 44.145778-44.088889h414.72c24.462222 0 44.145778 19.740444 44.145778 44.088889v184.433778a26.453333 26.453333 0 1 1-52.906667 0V286.208a17.635556 17.635556 0 0 0-17.635555-17.635556h-361.813334a17.635556 17.635556 0 0 0-17.635555 17.635556v435.939556c0 9.728 7.850667 17.635556 17.635555 17.635555z m561.493333-272.554667a35.384889 35.384889 0 0 1-35.328-35.384888V151.210667a23.552 23.552 0 0 0-23.608889-23.608889H151.210667a23.552 23.552 0 0 0-23.608889 23.608889v721.578666c0 13.084444 10.581333 23.608889 23.608889 23.608889h325.404444a35.384889 35.384889 0 0 1 0 70.712889H115.825778A58.936889 58.936889 0 0 1 56.888889 908.174222V115.825778C56.888889 83.285333 83.285333 56.888889 115.825778 56.888889h717.255111c32.540444 0 58.936889 26.396444 58.936889 58.936889v316.017778a35.384889 35.384889 0 0 1-35.328 35.384888z" fill="currentColor" p-id="5661"></path></svg>