<?xml version="1.0" standalone="no"?><!DOCTYPE svg PUBLIC "-//W3C//DTD SVG 1.1//EN" "http://www.w3.org/Graphics/SVG/1.1/DTD/svg11.dtd"><svg t="1684810930576" class="icon" viewBox="0 0 1024 1024" version="1.1" xmlns="http://www.w3.org/2000/svg" p-id="2140" xmlns:xlink="http://www.w3.org/1999/xlink" width="32" height="32"><path d="M270.56 469.12a16 16 0 0 1-15.04-10.56A272 272 0 0 1 512 96a274.08 274.08 0 0 1 125.92 30.72 16 16 0 0 1-14.88 28.48A240 240 0 0 0 285.6 448a16 16 0 0 1-9.6 20.32 16.96 16.96 0 0 1-5.44 0.8zM512 640a272 272 0 0 1-226.4-120.96 16 16 0 0 1 26.56-17.92A240 240 0 1 0 672 189.28a16 16 0 0 1 21.44-24A272 272 0 0 1 512 640z" p-id="2141" fill="currentColor"></path><path d="M536.96 384H448a16 16 0 0 1-16-16v-80a16 16 0 0 1 16-16h88.96A55.04 55.04 0 0 1 592 327.04v1.92A55.04 55.04 0 0 1 536.96 384zM464 352h72.96A23.2 23.2 0 0 0 560 328.96v-1.92A23.2 23.2 0 0 0 536.96 304H464z" p-id="2142" fill="currentColor"></path><path d="M552 464H448a16 16 0 0 1-16-16v-80a16 16 0 0 1 16-16h104a56 56 0 0 1 0 112zM464 432h88a24 24 0 0 0 0-48H464z" p-id="2143" fill="currentColor"></path><path d="M448 464h-16a16 16 0 0 1 0-32v-128a16 16 0 0 1 0-32h16a16 16 0 0 1 16 16v160a16 16 0 0 1-16 16z" p-id="2144" fill="currentColor"></path><path d="M528 304h-64a16 16 0 0 1-16-16v-32a16 16 0 0 1 32 0v16h32v-16a16 16 0 0 1 32 0v32a16 16 0 0 1-16 16zM528 496a16 16 0 0 1-16-16v-16h-32v16a16 16 0 0 1-32 0v-32a16 16 0 0 1 16-16h64a16 16 0 0 1 16 16v32a16 16 0 0 1-16 16z" p-id="2145" fill="currentColor"></path><path d="M512 976a16 16 0 0 1-11.36-4.64l-144-144a16 16 0 0 1-3.36-17.44A16 16 0 0 1 368 800h80v-86.24A352 352 0 0 1 478.56 17.6a16 16 0 0 1 2.88 32 320 320 0 0 0-15.2 634.72 16 16 0 0 1 13.76 16V816a16 16 0 0 1-16 16h-57.44L512 937.44 617.44 832H560a16 16 0 0 1-16-16v-115.84a16 16 0 0 1 13.76-16 320.96 320.96 0 0 0 141.44-56.96 16 16 0 0 1 22.24 3.52 16 16 0 0 1-3.52 22.4A354.56 354.56 0 0 1 576 713.76V800h80a16 16 0 0 1 14.72 9.92 16 16 0 0 1-3.36 17.44l-144 144A16 16 0 0 1 512 976zM796.48 562.56a16 16 0 0 1-12.48-25.92A320 320 0 0 0 542.56 49.6a16 16 0 1 1 2.88-32 352 352 0 0 1 264.64 537.44 16 16 0 0 1-13.6 7.52z m0-16zM755.68 614.88a16 16 0 0 1-11.36-4.64 16 16 0 0 1 0-22.72l2.24-2.4a16 16 0 1 1 24.32 20.8 46.56 46.56 0 0 1-3.84 4.32 16 16 0 0 1-11.36 4.64z" p-id="2146" fill="currentColor"></path></svg>