<svg xmlns="http://www.w3.org/2000/svg" xmlns:xlink="http://www.w3.org/1999/xlink" fill="none" version="1.1" width="64" height="64" viewBox="0 0 64 64"><defs><clipPath id="master_svg0_0_835"><rect x="0" y="0" width="64" height="64" rx="0"/></clipPath></defs><g style="mix-blend-mode:passthrough" clip-path="url(#master_svg0_0_835)"><g style="mix-blend-mode:passthrough"><g style="mix-blend-mode:passthrough"><path d="M37.20000076293945,20.8C37.20000076293945,23.72711,39.57289076293945,26.1,42.50000076293945,26.1C45.42711076293945,26.1,47.800000762939455,23.72711,47.800000762939455,20.8C47.800000762939455,17.872889999999998,45.42711076293945,15.5,42.50000076293945,15.5C39.57289076293945,15.5,37.20000076293945,17.872889999999998,37.20000076293945,20.8Z" fill="#FFD25B" fill-opacity="1"/></g><g style="mix-blend-mode:passthrough"><path d="M10.5,15.300000095367432C10.5,17.453910095367434,12.24609,19.200000095367432,14.4,19.200000095367432C16.553910000000002,19.200000095367432,18.3,17.453910095367434,18.3,15.300000095367432C18.3,13.146090095367432,16.553910000000002,11.400000095367432,14.4,11.400000095367432C12.24609,11.400000095367432,10.5,13.146090095367432,10.5,15.300000095367432Z" fill="#FFD25B" fill-opacity="1"/></g><g style="mix-blend-mode:passthrough"><path d="M27.700000762939453,53.300001525878905C27.700000762939453,55.45391152587891,29.446090762939452,57.2000015258789,31.60000076293945,57.2000015258789C33.753910762939455,57.2000015258789,35.50000076293945,55.45391152587891,35.50000076293945,53.300001525878905C35.50000076293945,51.14609152587891,33.753910762939455,49.400001525878906,31.60000076293945,49.400001525878906C29.446090762939452,49.400001525878906,27.700000762939453,51.14609152587891,27.700000762939453,53.300001525878905Z" fill="#658965" fill-opacity="1"/></g><g style="mix-blend-mode:passthrough"><path d="M39.70000076293945,42.699999237060545C39.70000076293945,45.682339237060546,42.11766076293945,48.099999237060544,45.10000076293945,48.099999237060544C48.08234076293945,48.099999237060544,50.50000076293945,45.682339237060546,50.50000076293945,42.699999237060545C50.50000076293945,39.717659237060545,48.08234076293945,37.29999923706055,45.10000076293945,37.29999923706055C42.11766076293945,37.29999923706055,39.70000076293945,39.717659237060545,39.70000076293945,42.699999237060545Z" fill="#FFD25B" fill-opacity="1"/></g><g style="mix-blend-mode:passthrough"><path d="M10.5,39.199999237060545C10.5,42.182339237060546,12.91766,44.599999237060544,15.9,44.599999237060544C18.88234,44.599999237060544,21.3,42.182339237060546,21.3,39.199999237060545C21.3,36.217659237060545,18.88234,33.79999923706055,15.9,33.79999923706055C12.91766,33.79999923706055,10.5,36.217659237060545,10.5,39.199999237060545Z" fill="#FFD25B" fill-opacity="1"/></g><g style="mix-blend-mode:passthrough"><path d="M23.700047929000853,23.30000009536743C23.700047929000853,23.30000009536743,9.999997929000855,25.30000009536743,9.999997929000855,25.30000009536743C8.399999929000854,25.500000095367433,7.699999929000855,27.500000095367433,8.899999929000854,28.700000095367432C8.899999929000854,28.700000095367432,18.800047929000854,38.40000009536743,18.800047929000854,38.40000009536743C18.800047929000854,38.40000009536743,16.499997929000855,52.00000009536743,16.499997929000855,52.00000009536743C16.199997929000855,53.600000095367434,17.899997929000854,54.90000009536743,19.400047929000856,54.100000095367434C19.400047929000856,54.100000095367434,31.600047929000855,47.70000009536743,31.600047929000855,47.70000009536743C31.600047929000855,47.70000009536743,43.800047929000854,54.100000095367434,43.800047929000854,54.100000095367434C45.300047929000854,54.90000009536743,47.00004792900086,53.600000095367434,46.70004792900085,52.00000009536743C46.70004792900085,52.00000009536743,44.400047929000856,38.40000009536743,44.400047929000856,38.40000009536743C44.400047929000856,38.40000009536743,54.300047929000854,28.700000095367432,54.300047929000854,28.700000095367432C55.50004792900086,27.60000009536743,54.800047929000854,25.500000095367433,53.20004792900085,25.30000009536743C53.20004792900085,25.30000009536743,39.50004792900086,23.30000009536743,39.50004792900086,23.30000009536743C39.50004792900086,23.30000009536743,33.400047929000856,10.900000095367432,33.400047929000856,10.900000095367432C32.70004792900085,9.400000095367432,30.500047929000853,9.400000095367432,29.800047929000854,10.900000095367432C29.800047929000854,10.900000095367432,23.700047929000853,23.30000009536743,23.700047929000853,23.30000009536743Z" fill="#812122" fill-opacity="1"/></g><g style="mix-blend-mode:passthrough"><path d="M34.5,8.7C34.5,10.19117,35.70883,11.4,37.2,11.4C38.69117,11.4,39.9,10.19117,39.9,8.7C39.9,7.20883,38.69117,6,37.2,6C35.70883,6,34.5,7.20883,34.5,8.7Z" fill="#658965" fill-opacity="1"/></g><g style="mix-blend-mode:passthrough"><path d="M6,31.60000076293945C6,32.64934076293945,6.850659,33.50000076293945,7.9,33.50000076293945C8.94934,33.50000076293945,9.8,32.64934076293945,9.8,31.60000076293945C9.8,30.550659762939453,8.94934,29.700000762939453,7.9,29.700000762939453C6.850659,29.700000762939453,6,30.550659762939453,6,31.60000076293945Z" fill="#658965" fill-opacity="1"/></g><g style="mix-blend-mode:passthrough"><path d="M52.20000076293945,32C52.20000076293945,33.38071,53.31929076293945,34.5,54.70000076293945,34.5C56.080710762939454,34.5,57.20000076293945,33.38071,57.20000076293945,32C57.20000076293945,30.61929,56.080710762939454,29.5,54.70000076293945,29.5C53.31929076293945,29.5,52.20000076293945,30.61929,52.20000076293945,32Z" fill="#658965" fill-opacity="1"/></g><g style="mix-blend-mode:passthrough"><path d="M31.600000381469727,9.799999952316284C32.30000038146973,9.799999952316284,33.000000381469725,10.199999952316285,33.400000381469724,10.899999952316284C33.400000381469724,10.899999952316284,39.500000381469725,23.299999952316284,39.500000381469725,23.299999952316284C39.500000381469725,23.299999952316284,31.600000381469727,31.599999952316285,31.600000381469727,31.599999952316285C31.600000381469727,31.599999952316285,31.600000381469727,9.799999952316284,31.600000381469727,9.799999952316284Z" fill="#B9332A" fill-opacity="1"/></g><g style="mix-blend-mode:passthrough"><path d="M54.70000038146973,26.299999237060547C55.000000381469725,27.099999237060548,55.000000381469725,27.999999237060546,54.30000038146973,28.599999237060548C54.30000038146973,28.599999237060548,44.400000381469724,38.29999923706055,44.400000381469724,38.29999923706055C44.400000381469724,38.29999923706055,31.600000381469727,31.499999237060546,31.600000381469727,31.499999237060546C31.600000381469727,31.499999237060546,54.70000038146973,26.299999237060547,54.70000038146973,26.299999237060547Z" fill="#B9332A" fill-opacity="1"/></g><g style="mix-blend-mode:passthrough"><path d="M31.600000381469727,47.60000038146973C31.600000381469727,47.60000038146973,31.600000381469727,31.600000381469727,31.600000381469727,31.600000381469727C31.600000381469727,31.600000381469727,46.000000381469725,53.80000038146973,46.000000381469725,53.80000038146973C45.500000381469725,54.30000038146973,44.60000038146973,54.500000381469725,43.80000038146973,54.000000381469725C43.80000038146973,54.000000381469725,31.600000381469727,47.60000038146973,31.600000381469727,47.60000038146973Z" fill="#B9332A" fill-opacity="1"/></g><g style="mix-blend-mode:passthrough"><path d="M17.19999972930908,53.900000762939456C16.69999972930908,53.400000762939456,16.399999929309082,52.800000762939455,16.499999929309084,52.00000076293945C16.499999929309084,52.00000076293945,18.799999729309082,38.300000762939455,18.799999729309082,38.300000762939455C18.799999729309082,38.300000762939455,31.60003972930908,31.700000762939453,31.60003972930908,31.700000762939453C31.60003972930908,31.700000762939453,17.19999972930908,53.900000762939456,17.19999972930908,53.900000762939456Z" fill="#B9332A" fill-opacity="1"/></g><g style="mix-blend-mode:passthrough"><path d="M23.7,23.299999237060547C23.7,23.299999237060547,31.6,31.599999237060548,31.6,31.599999237060548C31.6,31.599999237060548,8.5,26.39999923706055,8.5,26.39999923706055C8.8,25.799999237060547,9.3,25.39999923706055,10,25.299999237060547C10,25.299999237060547,23.7,23.299999237060547,23.7,23.299999237060547Z" fill="#B9332A" fill-opacity="1"/></g></g></g></svg>